<svg width="57" height="57" viewBox="0 0 57 57" fill="none" xmlns="http://www.w3.org/2000/svg">
<g clip-path="url(#clip0_1_9016)">
<path d="M56.98 10.9334C56.98 19.5932 53.2047 25.8846 53.0459 26.1471C52.7261 26.6697 52.1726 26.9564 51.6015 26.9564C51.3016 26.9564 50.9995 26.877 50.726 26.7116C49.9277 26.2264 49.6719 25.1878 50.1549 24.3895C50.1902 24.3322 53.5972 18.6053 53.5972 10.9334C53.5972 6.55826 50.7525 3.38278 46.8316 3.38278C43.1004 3.38278 40.0661 6.41713 40.0661 10.1505C40.0661 11.7405 40.8357 15.7804 41.1312 17.2028C41.323 18.1179 40.7343 19.0132 39.8191 19.2051C38.9039 19.3925 38.0086 18.8081 37.819 17.8952C37.7021 17.3373 36.6789 12.3778 36.6789 10.1505C36.6789 4.55374 41.2326 0 46.8316 0C52.6159 0 56.98 4.69928 56.98 10.9334ZM47.1183 13.5951C47.7909 19.2161 48.7656 30.1693 47.6454 31.2852L23.0662 55.8665C21.5556 57.3793 19.1012 57.3793 17.5885 55.8643L1.15313 39.4312C-0.359637 37.9206 -0.359637 35.4662 1.15313 33.9535L25.7345 9.3743C26.1248 8.98398 30.3764 8.96634 35.1573 9.21553C35.1308 9.53087 35.0625 9.82858 35.0625 10.1505C35.0625 11.3766 35.3337 13.2775 35.6182 14.949C35.1176 15.6922 34.8243 16.5853 34.8243 17.549C34.8243 20.1158 36.906 22.1975 39.4729 22.1975C42.0397 22.1975 44.1214 20.1158 44.1214 17.549C44.1214 15.9679 43.3298 14.5742 42.1235 13.7362C41.8765 12.2653 41.6781 10.8452 41.6781 10.1505C41.6781 10.0006 41.709 9.86165 41.7222 9.71391C42.311 9.77565 42.8909 9.8396 43.44 9.90796C46.6883 10.3071 46.7214 10.3005 47.1183 13.5951ZM34.0172 31.9908C33.6357 30.9301 33.0006 29.6577 31.6224 28.1935L33.488 26.3257L31.4107 24.2506L29.3973 26.2661C26.7026 24.4204 23.924 24.5703 22.0386 26.4558C19.9833 28.511 20.4685 31.1198 21.9768 34.1519C23.0133 36.2513 23.2029 37.4597 22.398 38.2646C21.5711 39.0916 20.2369 38.7321 19.0263 37.5237C17.6502 36.1476 16.8431 34.4474 16.4418 33.0692L13.3236 34.9171C13.6853 36.1653 14.66 37.9449 16.036 39.4091L14.0028 41.4445L16.0779 43.5218L18.2633 41.3387C21.1455 43.3719 24.0519 43.0984 25.9374 41.213C27.8669 39.279 28.0367 37.1179 26.3828 33.6844C25.2361 31.2234 24.9605 30.015 25.6397 29.338C26.2351 28.7426 27.2936 28.5728 28.6718 29.951C30.2 31.4792 30.7072 32.9633 30.9829 33.7484L34.0172 31.9908Z" fill="url(#paint0_linear_1_9016)"/>
</g>
<defs>
<linearGradient id="paint0_linear_1_9016" x1="0.0185547" y1="0" x2="67.6268" y2="38.116" gradientUnits="userSpaceOnUse">
<stop stop-color="#ED1928"/>
<stop offset="1" stop-color="#E60254"/>
</linearGradient>
<clipPath id="clip0_1_9016">
<rect width="57" height="57" fill="white"/>
</clipPath>
</defs>
</svg>
