<svg width="320" height="939" viewBox="0 0 320 939" fill="none" xmlns="http://www.w3.org/2000/svg">
<g>
<path d="M353.905 714.045C352.873 714.391 351.957 714.622 350.925 714.852C349.894 715.083 348.977 715.083 347.946 714.968C346.914 714.852 345.998 714.506 344.852 714.045C343.82 713.584 342.789 712.777 341.757 711.624C341.299 711.163 340.726 710.587 339.924 709.78C339.122 708.973 338.32 708.166 337.288 707.358C336.371 706.551 335.34 705.975 334.309 705.514C333.277 705.053 332.246 704.937 331.214 705.283C330.183 705.629 329.381 706.321 329.037 707.358C328.693 708.396 328.693 709.549 329.037 710.587C329.266 711.394 329.725 712.085 330.183 712.662C330.756 713.123 331.214 713.584 331.902 713.93C332.475 714.276 333.163 714.506 333.736 714.622C334.309 714.737 334.882 714.968 335.225 715.083L331.787 725.574C328.579 725.228 325.714 723.96 323.307 721.885C320.901 719.694 319.182 716.928 318.036 713.584C317.463 711.739 317.119 709.895 317.119 707.82C317.119 705.86 317.348 703.9 318.036 702.055C318.723 700.211 319.869 698.481 321.359 696.982C322.963 695.484 325.026 694.331 327.662 693.524C329.954 692.832 332.131 692.601 334.194 692.832C336.257 693.063 338.434 694.1 340.497 695.714C341.528 696.521 342.445 697.444 343.362 698.366C344.164 699.288 345.081 700.095 345.883 700.902C346.685 701.709 347.487 702.286 348.175 702.632C348.977 703.093 349.665 703.093 350.467 702.862L353.905 714.045ZM372.126 708.05L360.552 711.739L357.114 700.672L368.688 696.982L372.126 708.05Z" fill="white"/>
<path d="M284.802 57.238L266.352 52.5111L270.821 34.987L289.271 39.7139L284.802 57.238ZM255.58 50.09C253.975 49.6288 252.485 49.1677 250.996 48.7065C249.506 48.1301 248.131 47.4383 246.87 46.4007C245.61 45.4784 244.578 44.2102 243.547 42.7114C242.63 41.2127 241.828 39.2527 241.255 36.9469C241.026 36.0246 240.682 34.6411 240.338 32.9118C239.994 31.1824 239.421 29.4531 238.848 27.6084C238.161 25.7638 237.359 24.1497 236.327 22.651C235.296 21.1522 234.035 20.2299 232.431 19.884C230.712 19.4228 229.222 19.7687 227.847 20.9216C226.472 22.0745 225.555 23.458 225.097 25.3026C224.753 26.6861 224.753 27.9543 224.982 28.9919C225.211 30.1448 225.67 31.0671 226.243 31.9894C226.816 32.9118 227.389 33.7188 228.076 34.4105C228.764 35.1023 229.222 35.794 229.68 36.3705L216.502 47.5536C212.376 44.4408 209.626 40.4056 208.136 35.5634C206.646 30.7213 206.646 25.5332 208.021 20.1146C208.709 17.2323 209.855 14.4654 211.459 11.6984C213.064 8.93143 215.012 6.62563 217.418 4.78099C219.825 2.82106 222.69 1.55287 226.013 0.86113C229.337 0.16939 233.004 0.28468 237.244 1.43758C240.796 2.3599 244.005 3.85867 246.526 5.93389C249.162 8.00912 251.11 11.0067 252.6 15.0418C253.288 17.0017 253.861 18.9617 254.204 20.9216C254.548 22.8815 255.007 24.7262 255.465 26.3402C255.923 28.0696 256.496 29.4531 257.184 30.606C257.872 31.7589 258.788 32.5659 259.934 32.7965L255.58 50.09Z" fill="white"/>
<path d="M305.659 594.259L301.533 605.211L291.22 601.291L295.345 590.339L305.659 594.259ZM299.356 611.667C299.012 612.59 298.668 613.512 298.21 614.434C297.752 615.357 297.179 616.048 296.606 616.74C295.918 617.432 295.116 618.008 294.085 618.469C293.053 618.931 291.907 619.276 290.417 619.507C289.844 619.622 289.042 619.622 287.896 619.738C286.865 619.853 285.719 619.968 284.573 620.314C283.427 620.545 282.396 621.006 281.479 621.467C280.562 622.043 279.874 622.735 279.531 623.658C279.187 624.695 279.187 625.617 279.76 626.54C280.333 627.462 281.135 628.154 282.166 628.5C282.969 628.846 283.656 628.961 284.344 628.846C285.031 628.73 285.719 628.615 286.292 628.269C286.865 628.039 287.438 627.693 287.896 627.347C288.355 627.001 288.813 626.655 289.157 626.54L295.001 635.302C292.824 637.608 290.188 638.991 287.209 639.568C284.114 640.144 281.02 639.798 277.812 638.645C276.093 637.953 274.488 637.146 272.998 635.994C271.509 634.841 270.134 633.457 269.217 631.843C268.185 630.229 267.612 628.384 267.383 626.309C267.154 624.234 267.498 621.928 268.529 619.507C269.331 617.317 270.477 615.587 271.853 614.088C273.342 612.59 275.29 611.552 277.697 610.976C278.958 610.63 280.104 610.514 281.364 610.399C282.625 610.284 283.656 610.169 284.687 610.053C285.719 609.938 286.636 609.707 287.438 609.361C288.24 609.016 288.698 608.554 288.928 607.863L299.356 611.667Z" fill="white"/>
<path d="M243.776 124.798L262.57 128.026L259.476 145.896L240.682 142.668L243.776 124.798ZM273.457 129.64C275.062 129.87 276.666 130.216 278.156 130.677C279.646 131.139 281.135 131.715 282.396 132.637C283.656 133.444 284.917 134.597 285.948 136.096C286.98 137.595 287.897 139.439 288.584 141.63C288.928 142.552 289.272 143.82 289.73 145.55C290.189 147.279 290.876 149.009 291.678 150.738C292.481 152.467 293.397 154.081 294.543 155.465C295.689 156.848 297.064 157.655 298.669 158.001C300.388 158.347 301.878 157.886 303.253 156.618C304.513 155.465 305.316 153.851 305.659 152.006C305.889 150.623 305.889 149.354 305.43 148.317C305.086 147.279 304.513 146.242 303.94 145.435C303.253 144.627 302.68 143.82 301.878 143.129C301.19 142.437 300.617 141.861 300.159 141.284L312.421 129.063C316.775 131.83 319.755 135.635 321.703 140.362C323.537 145.089 323.995 150.277 323.078 155.811C322.62 158.693 321.588 161.575 320.328 164.457C318.953 167.34 317.119 169.761 314.942 171.836C312.65 173.911 309.899 175.41 306.691 176.448C303.482 177.37 299.7 177.485 295.46 176.793C291.793 176.102 288.584 174.949 285.834 172.989C283.083 171.144 280.792 168.262 279.187 164.457C278.385 162.613 277.697 160.653 277.124 158.808C276.551 156.848 275.978 155.119 275.405 153.505C274.832 151.891 274.145 150.507 273.457 149.354C272.655 148.201 271.738 147.625 270.478 147.394L273.457 129.64Z" fill="white"/>
<path d="M276.78 671.503L285.833 671.157L286.177 679.804L277.124 680.15L276.78 671.503ZM291.105 670.812C291.907 670.812 292.595 670.812 293.397 670.812C294.199 670.812 294.887 671.042 295.574 671.273C296.262 671.503 296.949 671.964 297.637 672.541C298.325 673.117 298.898 673.924 299.471 674.847C299.7 675.193 300.044 675.769 300.387 676.576C300.731 677.268 301.304 678.075 301.763 678.767C302.336 679.458 302.909 680.15 303.596 680.611C304.284 681.188 304.971 681.418 305.773 681.303C306.576 681.303 307.263 680.957 307.722 680.265C308.18 679.574 308.409 678.767 308.409 677.96C308.409 677.268 308.18 676.691 307.951 676.23C307.722 675.769 307.378 675.308 306.919 674.962C306.576 674.616 306.117 674.386 305.773 674.155C305.43 673.924 305.086 673.694 304.742 673.463L309.211 666.546C311.503 667.468 313.337 668.852 314.598 670.927C315.973 673.002 316.66 675.308 316.775 677.96C316.775 679.343 316.66 680.842 316.316 682.225C315.973 683.724 315.4 684.992 314.483 686.26C313.681 687.413 312.535 688.451 311.16 689.258C309.784 690.065 308.065 690.411 306.003 690.526C304.284 690.641 302.565 690.296 301.19 689.719C299.7 689.143 298.439 687.99 297.179 686.376C296.606 685.569 296.033 684.762 295.689 683.955C295.23 683.148 294.772 682.341 294.428 681.649C293.97 680.957 293.511 680.381 293.053 679.92C292.595 679.458 292.022 679.228 291.449 679.343L291.105 670.812Z" fill="white"/>
<path d="M327.203 551.832L326.745 558.98L319.984 558.519L320.442 551.371L327.203 551.832ZM326.516 563.131C326.516 563.707 326.401 564.399 326.287 564.975C326.172 565.552 326.057 566.128 325.714 566.705C325.484 567.281 325.026 567.742 324.568 568.203C324.109 568.665 323.422 569.126 322.619 569.472C322.276 569.587 321.817 569.818 321.244 570.048C320.671 570.279 319.984 570.625 319.411 570.97C318.838 571.316 318.265 571.777 317.806 572.239C317.348 572.7 317.119 573.276 317.004 573.853C317.004 574.544 317.233 575.121 317.692 575.467C318.15 575.928 318.838 576.158 319.525 576.158C320.098 576.158 320.557 576.158 320.9 575.928C321.244 575.697 321.588 575.467 321.932 575.236C322.276 575.006 322.505 574.66 322.734 574.429C322.963 574.083 323.192 573.853 323.307 573.737L328.349 577.888C327.433 579.617 326.172 580.885 324.453 581.808C322.734 582.73 320.9 583.076 318.723 582.961C317.577 582.845 316.546 582.615 315.4 582.269C314.254 581.923 313.337 581.231 312.42 580.539C311.503 579.732 310.93 578.81 310.357 577.657C309.899 576.504 309.67 575.121 309.784 573.391C309.899 572.008 310.243 570.74 310.816 569.587C311.389 568.434 312.42 567.512 313.795 566.705C314.483 566.359 315.171 566.013 315.858 565.667C316.546 565.436 317.233 565.091 317.806 564.86C318.379 564.629 318.838 564.284 319.296 563.938C319.64 563.592 319.869 563.246 319.869 562.785L326.516 563.131Z" fill="white"/>
<path d="M264.174 183.827L245.38 186.594L242.744 168.724L261.538 165.957L264.174 183.827ZM234.493 188.554C232.889 188.784 231.284 188.899 229.68 189.015C228.076 189.13 226.586 188.899 224.982 188.554C223.492 188.092 222.002 187.401 220.512 186.363C219.022 185.325 217.647 183.827 216.272 181.982C215.699 181.175 214.897 180.137 213.866 178.639C212.834 177.14 211.688 175.756 210.428 174.373C209.167 172.989 207.677 171.721 206.187 170.799C204.698 169.877 203.093 169.531 201.489 169.761C199.77 169.992 198.395 170.914 197.593 172.413C196.79 173.912 196.447 175.641 196.79 177.486C197.02 178.869 197.478 180.022 198.166 180.944C198.853 181.867 199.655 182.674 200.458 183.25C201.374 183.827 202.176 184.403 203.093 184.749C204.01 185.095 204.698 185.556 205.271 185.902L197.478 201.351C192.55 200.083 188.425 197.431 185.216 193.511C182.007 189.591 179.944 184.864 179.142 179.33C178.684 176.448 178.684 173.335 179.142 170.222C179.486 167.11 180.517 164.227 182.007 161.46C183.497 158.809 185.56 156.388 188.425 154.543C191.175 152.583 194.728 151.315 198.968 150.623C202.635 150.047 206.073 150.277 209.282 151.2C212.49 152.122 215.47 154.082 218.335 157.195C219.71 158.693 220.971 160.307 222.117 161.922C223.263 163.536 224.294 165.034 225.325 166.418C226.357 167.801 227.503 168.839 228.534 169.761C229.565 170.568 230.711 170.914 231.972 170.684L234.493 188.554Z" fill="white"/>
<path d="M180.403 223.947L170.777 239.165L156.452 229.942L166.078 214.724L180.403 223.947ZM165.391 248.158C164.588 249.426 163.672 250.694 162.755 251.847C161.838 253 160.807 254.038 159.546 254.845C158.285 255.652 156.91 256.344 155.191 256.689C153.587 257.151 151.639 257.266 149.347 257.035C148.43 256.92 147.169 256.805 145.45 256.689C143.846 256.459 142.012 256.459 140.294 256.459C138.46 256.574 136.741 256.805 135.137 257.266C133.532 257.727 132.272 258.649 131.469 259.918C130.553 261.301 130.438 262.8 131.011 264.414C131.584 265.913 132.615 267.181 134.105 268.103C135.251 268.795 136.283 269.256 137.429 269.256C138.46 269.371 139.491 269.256 140.523 269.026C141.554 268.795 142.356 268.449 143.158 268.103C143.961 267.757 144.648 267.411 145.336 267.181L151.41 282.399C147.399 285.166 143.044 286.434 138.231 286.319C133.418 286.204 128.834 284.705 124.364 281.938C122.072 280.439 119.895 278.595 117.947 276.404C115.999 274.214 114.509 271.677 113.478 269.026C112.446 266.259 112.102 263.376 112.446 260.148C112.79 256.92 114.051 253.577 116.228 250.118C118.061 247.12 120.353 244.815 122.989 242.97C125.625 241.241 128.948 240.318 132.845 240.203C134.793 240.088 136.741 240.203 138.575 240.434C140.408 240.664 142.127 240.779 143.846 240.895C145.45 241.01 146.94 240.895 148.201 240.664C149.461 240.434 150.378 239.742 150.951 238.82L165.391 248.158Z" fill="white"/>
<path d="M343.018 108.08L330.641 106.927L331.787 95.1679L344.164 96.3208L343.018 108.08ZM323.422 106.466C322.39 106.351 321.359 106.236 320.327 106.005C319.296 105.775 318.379 105.429 317.462 104.968C316.546 104.506 315.743 103.815 314.941 102.892C314.139 101.97 313.452 100.817 312.879 99.4336C312.649 98.8572 312.306 98.0501 311.847 96.8972C311.389 95.8596 310.93 94.7067 310.357 93.5538C309.784 92.4009 309.097 91.4786 308.18 90.6716C307.378 89.8645 306.461 89.4034 305.43 89.2881C304.284 89.1728 303.252 89.5187 302.565 90.441C301.763 91.248 301.304 92.2856 301.19 93.5538C301.075 94.4761 301.19 95.2832 301.533 95.9749C301.877 96.6666 302.221 97.2431 302.679 97.8195C303.138 98.396 303.596 98.8572 304.169 99.203C304.627 99.5489 305.086 99.8948 305.43 100.241L298.095 108.772C295.116 107.158 292.938 104.852 291.449 101.855C289.959 98.8571 289.501 95.5137 289.844 91.8245C290.074 89.8645 290.532 88.0199 291.22 86.06C291.907 84.1 293.053 82.486 294.428 80.9872C295.803 79.4884 297.522 78.3355 299.585 77.5285C301.648 76.7215 304.054 76.4909 306.919 76.7215C309.326 76.952 311.503 77.6438 313.452 78.6814C315.4 79.719 317.004 81.5636 318.265 83.9847C318.952 85.1376 319.411 86.4058 319.869 87.5587C320.327 88.8269 320.786 89.8645 321.244 90.9021C321.703 91.9397 322.161 92.8621 322.734 93.5538C323.307 94.2456 323.995 94.5914 324.797 94.7067L323.422 106.466Z" fill="white"/>
<path d="M321.13 631.497L333.277 635.532L329.495 647.061L317.348 643.026L321.13 631.497ZM340.382 637.608C341.413 637.954 342.445 638.299 343.362 638.761C344.393 639.222 345.195 639.798 345.997 640.49C346.8 641.182 347.487 642.104 348.06 643.142C348.633 644.179 349.092 645.563 349.321 647.061C349.435 647.753 349.55 648.676 349.779 649.828C349.894 650.981 350.238 652.249 350.581 653.518C350.925 654.786 351.384 655.939 352.071 656.976C352.644 658.014 353.561 658.706 354.592 659.052C355.738 659.398 356.77 659.282 357.686 658.59C358.603 657.899 359.291 656.976 359.749 655.823C360.093 654.901 360.093 654.094 359.978 653.287C359.864 652.48 359.635 651.788 359.291 651.212C358.947 650.52 358.603 650.059 358.145 649.483C357.686 649.021 357.457 648.56 357.113 648.099L366.396 641.182C369.032 643.488 370.636 646.254 371.438 649.598C372.24 652.941 372.011 656.4 370.865 659.974C370.292 661.819 369.375 663.663 368.115 665.393C366.969 667.122 365.479 668.621 363.76 669.774C362.041 670.927 360.093 671.734 357.801 672.079C355.509 672.425 353.102 672.079 350.238 671.157C347.831 670.35 345.883 669.197 344.164 667.698C342.445 666.2 341.299 664.009 340.497 661.357C340.153 659.974 339.809 658.706 339.695 657.322C339.58 656.054 339.351 654.786 339.122 653.633C338.892 652.48 338.549 651.442 338.205 650.635C337.861 649.828 337.173 649.252 336.486 649.021L340.382 637.608Z" fill="white"/>
<path d="M353.103 631.267L344.966 626.771L349.206 619.046L357.343 623.543L353.103 631.267ZM340.153 624.234C339.465 623.888 338.778 623.427 338.205 622.966C337.517 622.505 337.059 622.044 336.601 621.352C336.142 620.776 335.798 619.969 335.455 619.161C335.225 618.354 335.111 617.317 335.111 616.164C335.111 615.703 335.111 615.011 335.225 614.204C335.225 613.282 335.225 612.475 335.111 611.552C334.996 610.63 334.882 609.708 334.538 608.901C334.194 608.094 333.736 607.517 333.048 607.056C332.246 606.595 331.558 606.595 330.756 606.941C329.954 607.287 329.381 607.863 328.922 608.67C328.579 609.247 328.464 609.823 328.464 610.399C328.464 610.976 328.579 611.437 328.693 612.013C328.808 612.475 329.037 612.936 329.266 613.397C329.495 613.858 329.61 614.204 329.839 614.55L322.276 618.239C320.786 616.279 319.869 613.973 319.869 611.552C319.755 609.016 320.442 606.595 321.703 604.289C322.39 603.021 323.307 601.868 324.339 600.715C325.37 599.677 326.63 598.755 328.006 598.179C329.381 597.602 330.871 597.256 332.475 597.372C334.079 597.487 335.913 597.948 337.747 598.986C339.351 599.908 340.611 600.946 341.643 602.329C342.674 603.597 343.247 605.327 343.362 607.402C343.476 608.44 343.476 609.362 343.362 610.399C343.247 611.322 343.247 612.244 343.247 613.166C343.247 613.973 343.362 614.78 343.476 615.357C343.591 616.049 344.049 616.51 344.508 616.74L340.153 624.234Z" fill="white"/>
<path d="M179.601 656.516L195.874 666.431L186.591 681.995L170.319 672.08L179.601 656.516ZM205.5 671.849C206.875 672.656 208.251 673.578 209.511 674.501C210.772 675.423 211.918 676.576 212.834 677.844C213.751 679.112 214.439 680.611 214.897 682.341C215.356 684.07 215.585 686.145 215.356 688.451C215.356 689.373 215.241 690.757 215.012 692.601C214.897 694.331 214.783 696.175 214.897 698.135C215.012 700.095 215.356 701.825 215.929 703.554C216.502 705.283 217.418 706.551 218.908 707.358C220.398 708.281 222.002 708.396 223.607 707.704C225.211 707.013 226.472 705.86 227.503 704.361C228.191 703.208 228.649 701.94 228.649 700.787C228.649 699.634 228.534 698.596 228.305 697.559C228.076 696.521 227.618 695.599 227.274 694.677C226.815 693.87 226.472 693.062 226.242 692.371L242.057 685.453C245.036 689.604 246.526 694.215 246.641 699.403C246.641 704.476 245.266 709.434 242.401 714.276C240.911 716.812 238.963 719.118 236.671 721.309C234.379 723.499 231.858 725.113 228.993 726.266C226.128 727.419 223.034 727.88 219.71 727.534C216.387 727.304 212.834 726.035 209.053 723.73C205.844 721.77 203.323 719.464 201.375 716.697C199.426 713.93 198.395 710.471 198.166 706.321C198.051 704.246 198.051 702.286 198.28 700.21C198.51 698.251 198.624 696.406 198.624 694.677C198.624 692.947 198.51 691.448 198.28 690.065C197.937 688.797 197.249 687.759 196.218 687.183L205.5 671.849Z" fill="white"/>
<path d="M142.929 795.325C141.898 795.209 140.867 795.094 139.835 794.979C138.804 794.863 137.887 794.518 136.97 794.056C136.053 793.595 135.251 792.903 134.449 792.096C133.647 791.289 132.959 790.137 132.386 788.753C132.157 788.177 131.813 787.37 131.355 786.332C130.896 785.294 130.438 784.257 129.751 783.219C129.178 782.181 128.375 781.259 127.573 780.452C126.771 779.645 125.854 779.184 124.823 779.184C123.677 779.069 122.76 779.53 122.072 780.337C121.385 781.144 120.926 782.182 120.926 783.334C120.812 784.257 121.041 785.064 121.27 785.64C121.614 786.332 121.958 786.908 122.416 787.37C122.875 787.831 123.333 788.292 123.906 788.638C124.364 788.984 124.823 789.33 125.167 789.675L118.176 798.207C115.311 796.708 113.019 794.518 111.529 791.635C110.04 788.753 109.467 785.525 109.696 781.951C109.81 780.106 110.269 778.146 110.842 776.302C111.529 774.457 112.446 772.728 113.821 771.229C115.082 769.73 116.686 768.577 118.749 767.77C120.697 766.963 123.104 766.617 125.854 766.733C128.261 766.848 130.323 767.424 132.272 768.462C134.105 769.5 135.824 771.114 137.085 773.419C137.772 774.572 138.345 775.725 138.804 776.878C139.262 778.031 139.721 779.184 140.179 780.106C140.637 781.144 141.21 781.951 141.669 782.643C142.242 783.334 142.929 783.68 143.731 783.68L142.929 795.325ZM162.067 796.362L149.92 795.555L150.722 784.026L162.869 784.833L162.067 796.362Z" fill="white"/>
<path d="M344.278 862.424C343.247 862.308 342.215 862.193 341.184 861.963C340.153 861.732 339.236 861.386 338.434 860.925C337.517 860.464 336.715 859.772 336.027 858.85C335.225 857.927 334.652 856.774 334.079 855.391C333.85 854.814 333.506 854.007 333.162 852.97C332.818 851.932 332.245 850.779 331.672 849.742C331.099 848.704 330.412 847.666 329.61 846.859C328.807 846.052 327.891 845.591 326.859 845.476C325.713 845.361 324.796 845.706 323.994 846.513C323.192 847.321 322.848 848.358 322.619 849.511C322.504 850.433 322.619 851.24 322.848 851.817C323.077 852.509 323.536 853.085 323.88 853.662C324.338 854.238 324.796 854.584 325.255 855.045C325.713 855.391 326.172 855.737 326.401 856.083L319.067 864.384C316.202 862.77 314.139 860.464 312.764 857.581C311.388 854.584 310.93 851.356 311.274 847.782C311.503 845.937 311.961 843.977 312.649 842.132C313.451 840.288 314.483 838.674 315.743 837.175C317.118 835.791 318.723 834.638 320.786 833.947C322.848 833.14 325.14 832.909 327.891 833.255C330.297 833.486 332.36 834.177 334.194 835.215C336.027 836.253 337.631 837.982 338.777 840.403C339.35 841.556 339.923 842.709 340.382 843.977C340.84 845.13 341.184 846.283 341.642 847.321C342.101 848.358 342.559 849.165 343.132 849.857C343.705 850.549 344.278 850.895 345.08 851.01L344.278 862.424ZM363.301 864.268L351.269 863L352.529 851.471L364.562 852.739L363.301 864.268Z" fill="white"/>
<path d="M230.482 831.41L245.838 823.801L253.058 838.443L237.702 846.052L230.482 831.41ZM254.548 819.074C255.808 818.382 257.184 817.806 258.559 817.345C259.934 816.884 261.309 816.538 262.684 816.423C264.06 816.307 265.549 816.538 267.154 816.999C268.758 817.46 270.362 818.382 272.081 819.651C272.769 820.112 273.8 820.919 275.061 821.841C276.322 822.763 277.697 823.686 279.186 824.608C280.676 825.415 282.166 826.107 283.77 826.453C285.375 826.799 286.75 826.683 288.011 826.107C289.5 825.415 290.303 824.262 290.646 822.763C290.875 821.265 290.761 819.651 289.959 818.152C289.386 816.999 288.698 816.192 287.896 815.615C287.094 815.039 286.177 814.578 285.26 814.347C284.343 814.117 283.427 813.886 282.624 813.771C281.822 813.655 281.02 813.54 280.447 813.425L282.854 798.091C287.438 797.861 291.678 798.898 295.574 801.435C299.47 803.856 302.45 807.43 304.627 811.926C305.773 814.347 306.69 816.884 307.148 819.651C307.721 822.418 307.607 825.185 307.148 827.952C306.575 830.719 305.429 833.255 303.596 835.676C301.762 838.097 299.127 840.172 295.574 841.902C292.594 843.4 289.615 844.207 286.635 844.323C283.656 844.438 280.447 843.516 277.238 841.671C275.634 840.749 274.144 839.711 272.769 838.674C271.394 837.521 270.019 836.598 268.758 835.676C267.497 834.754 266.237 834.177 265.091 833.716C263.945 833.255 262.914 833.37 261.882 833.831L254.548 819.074Z" fill="white"/>
<path d="M137.658 873.376L152.098 882.599L143.503 896.319L129.064 887.096L137.658 873.376ZM160.693 887.672C161.953 888.479 163.099 889.286 164.245 890.208C165.391 891.131 166.308 892.168 167.11 893.321C167.912 894.474 168.485 895.858 168.944 897.472C169.402 899.086 169.517 900.93 169.288 903.006C169.288 903.928 169.173 905.081 168.944 906.695C168.715 908.309 168.715 909.923 168.829 911.652C168.944 913.382 169.173 914.996 169.631 916.61C170.09 918.109 171.006 919.262 172.152 920.069C173.528 920.876 174.903 921.106 176.393 920.53C177.882 919.953 179.028 919.031 179.945 917.532C180.633 916.495 180.977 915.457 181.091 914.419C181.206 913.382 181.091 912.459 180.862 911.422C180.633 910.499 180.289 909.577 179.945 908.885C179.601 908.078 179.258 907.387 179.143 906.81L193.468 900.93C196.103 904.735 197.364 909.001 197.249 913.497C197.135 918.109 195.76 922.49 193.124 926.755C191.749 929.061 189.915 931.021 187.852 932.981C185.79 934.826 183.383 936.325 180.862 937.247C178.226 938.169 175.476 938.515 172.496 938.284C169.517 937.939 166.308 936.786 162.985 934.71C160.12 932.866 157.942 930.791 156.223 928.254C154.504 925.718 153.702 922.605 153.588 918.8C153.473 916.956 153.588 915.111 153.817 913.382C154.046 911.652 154.161 909.923 154.275 908.424C154.39 906.81 154.275 905.427 154.046 904.274C153.817 903.121 153.244 902.199 152.327 901.622L160.693 887.672Z" fill="white"/>
<path d="M122.646 712.316L115.197 725.805L102.476 718.772L109.925 705.283L122.646 712.316ZM111.186 733.76C110.613 734.913 109.925 736.066 109.123 737.103C108.435 738.141 107.519 739.063 106.487 739.87C105.456 740.677 104.31 741.254 102.935 741.715C101.559 742.176 99.9551 742.407 98.0069 742.291C97.2047 742.291 96.1734 742.291 94.6836 742.176C93.3084 742.061 91.8187 742.176 90.2143 742.291C88.7245 742.407 87.2347 742.752 85.8595 743.329C84.4844 743.79 83.5676 744.712 82.88 745.865C82.1924 747.134 82.0778 748.402 82.7654 749.67C83.3384 750.938 84.2552 751.976 85.6304 752.667C86.6617 753.244 87.5785 753.474 88.4953 753.474C89.4121 753.474 90.3289 753.359 91.1311 753.129C91.9332 752.898 92.7354 752.552 93.423 752.206C94.1106 751.86 94.6836 751.515 95.2566 751.284L101.33 763.851C98.1215 766.387 94.4544 767.77 90.3289 768.001C86.2034 768.232 82.1924 767.194 78.2961 765.003C76.2333 763.851 74.2852 762.352 72.4516 760.622C70.618 758.893 69.2428 756.818 68.2115 754.512C67.1801 752.206 66.7217 749.785 66.8363 747.018C66.9509 744.251 67.8677 741.369 69.472 738.256C70.9618 735.604 72.6808 733.529 74.8582 731.8C77.0355 730.186 79.7858 729.148 83.1092 728.918C84.7136 728.802 86.4325 728.687 87.9223 728.802C89.5267 728.918 91.0165 728.918 92.3916 728.918C93.7668 728.918 95.0274 728.802 96.0588 728.456C97.0902 728.226 97.8924 727.649 98.3507 726.727L111.186 733.76Z" fill="white"/>
<path d="M270.821 658.129L259.476 659.167L258.445 648.445L269.79 647.407L270.821 658.129ZM252.944 659.974C252.027 660.089 250.996 660.089 250.079 660.089C249.162 660.089 248.245 659.974 247.329 659.628C246.412 659.282 245.61 658.821 244.693 658.245C243.891 657.553 243.089 656.631 242.286 655.478C241.943 655.017 241.484 654.325 241.026 653.403C240.453 652.48 239.88 651.558 239.078 650.751C238.39 649.829 237.588 649.137 236.671 648.445C235.754 647.869 234.837 647.523 233.921 647.638C232.889 647.753 232.087 648.214 231.514 649.137C230.941 650.059 230.712 650.981 230.827 652.134C230.941 652.941 231.17 653.633 231.514 654.21C231.858 654.786 232.316 655.247 232.889 655.708C233.348 656.054 233.921 656.4 234.379 656.631C234.837 656.861 235.296 657.092 235.64 657.438L230.483 666.43C227.618 665.508 225.211 663.779 223.378 661.358C221.544 658.936 220.513 656.054 220.169 652.711C220.054 650.981 220.054 649.137 220.398 647.292C220.742 645.448 221.43 643.718 222.346 642.219C223.263 640.605 224.638 639.337 226.357 638.3C228.076 637.262 230.254 636.57 232.775 636.34C234.952 636.109 237.015 636.34 238.963 637.031C240.911 637.723 242.63 638.991 244.12 640.951C244.922 641.874 245.61 642.911 246.183 643.949C246.756 644.986 247.329 645.909 248.016 646.716C248.589 647.523 249.162 648.214 249.85 648.791C250.423 649.367 251.11 649.598 251.913 649.483L252.944 659.974Z" fill="white"/>
<path d="M216.502 757.164C218.106 757.164 219.711 757.164 221.315 757.279C222.919 757.394 224.409 757.74 225.899 758.317C227.389 758.893 228.764 759.815 230.024 761.084C231.4 762.352 232.546 763.966 233.692 766.041C234.15 766.848 234.838 768.116 235.64 769.73C236.442 771.344 237.359 772.843 238.505 774.457C239.651 776.071 240.911 777.339 242.286 778.492C243.662 779.645 245.151 780.222 246.756 780.222C248.589 780.222 249.964 779.415 250.996 778.031C252.027 776.648 252.486 774.918 252.486 773.074C252.486 771.69 252.142 770.422 251.569 769.5C250.996 768.462 250.308 767.655 249.506 766.963C248.704 766.272 247.902 765.58 247.099 765.119C246.297 764.658 245.61 764.196 245.037 763.735L254.778 749.439C259.476 751.399 263.258 754.512 266.008 758.778C268.759 763.043 270.134 768.001 270.248 773.65C270.248 776.648 269.904 779.645 269.102 782.643C268.3 785.64 267.04 788.407 265.206 790.944C263.372 793.48 260.966 795.44 257.986 797.054C255.007 798.668 251.34 799.475 246.985 799.475C243.318 799.59 239.88 798.899 236.786 797.63C233.692 796.362 230.941 793.941 228.649 790.482C227.503 788.753 226.472 787.024 225.555 785.294C224.638 783.565 223.836 781.836 222.919 780.337C222.003 778.838 221.086 777.57 220.169 776.648C219.252 775.725 218.106 775.264 216.846 775.264L216.502 757.164ZM186.477 757.971L205.5 757.625L205.844 775.725L186.821 776.071L186.477 757.971Z" fill="white"/>
<path d="M238.161 869.226C239.651 869.687 241.255 870.263 242.63 870.955C244.12 871.647 245.38 872.454 246.526 873.492C247.672 874.529 248.704 875.797 249.621 877.411C250.537 879.025 251.11 880.985 251.454 883.291C251.683 884.213 251.798 885.597 252.142 887.326C252.371 889.056 252.829 890.9 253.288 892.745C253.861 894.59 254.548 896.319 255.465 897.818C256.382 899.316 257.642 900.354 259.132 900.815C260.851 901.392 262.341 901.161 263.831 900.123C265.206 899.086 266.237 897.702 266.81 895.973C267.269 894.59 267.383 893.437 267.154 892.284C266.925 891.131 266.581 890.093 266.123 889.171C265.664 888.249 265.091 887.442 264.404 886.635C263.831 885.943 263.258 885.251 262.914 884.675L276.78 874.298C280.677 877.642 283.198 881.908 284.344 886.865C285.49 891.823 285.261 897.011 283.542 902.314C282.625 905.081 281.364 907.848 279.531 910.5C277.812 913.151 275.634 915.342 273.113 917.071C270.592 918.8 267.727 919.953 264.289 920.414C260.966 920.876 257.184 920.53 253.059 919.146C249.506 917.993 246.526 916.264 244.005 914.074C241.484 911.883 239.651 908.655 238.619 904.62C238.046 902.66 237.588 900.7 237.359 898.74C237.129 896.78 236.786 894.935 236.442 893.206C236.098 891.477 235.64 890.093 235.067 888.825C234.494 887.557 233.577 886.865 232.431 886.404L238.161 869.226ZM209.511 860.233L227.618 866.113L222.117 883.291L204.011 877.411L209.511 860.233Z" fill="white"/>
<path d="M72.9105 792.673L83.1098 802.011L74.2857 811.696L64.0865 802.357L72.9105 792.673ZM89.1835 807.315C90.1003 808.122 90.9024 808.929 91.7046 809.851C92.5068 810.773 93.0798 811.696 93.5382 812.733C93.9966 813.771 94.3404 814.924 94.3404 816.307C94.455 817.576 94.2258 819.074 93.882 820.804C93.7674 821.495 93.4236 822.418 93.0798 823.686C92.736 824.954 92.3922 826.222 92.2776 827.606C92.0484 828.989 92.0484 830.373 92.2776 831.641C92.3922 832.909 92.9652 833.947 93.882 834.754C94.7988 835.676 95.9448 835.907 97.2054 835.676C98.4659 835.445 99.4973 834.869 100.414 833.831C101.102 833.024 101.56 832.333 101.789 831.526C102.018 830.719 102.018 829.912 102.018 829.105C102.018 828.298 101.789 827.606 101.675 826.914C101.445 826.222 101.331 825.646 101.331 825.185L113.593 822.533C115.197 825.992 115.541 829.45 114.853 833.14C114.166 836.829 112.447 840.057 109.697 843.17C108.207 844.784 106.602 846.167 104.654 847.32C102.706 848.589 100.643 849.396 98.4659 849.741C96.2885 850.087 93.9966 849.972 91.59 849.28C89.1835 848.589 86.8915 847.205 84.5996 845.015C82.6514 843.17 81.1616 841.095 80.1302 838.904C79.0988 836.714 78.8696 834.062 79.328 830.949C79.5572 829.45 79.901 828.067 80.2448 826.683C80.7032 825.3 81.047 824.032 81.2762 822.764C81.5054 821.495 81.7346 820.458 81.62 819.42C81.62 818.383 81.2762 817.691 80.5886 816.999L89.1835 807.315Z" fill="white"/>
<path d="M150.379 695.253L157.14 706.205L146.826 712.546L140.065 701.594L150.379 695.253ZM161.265 712.431C161.838 713.353 162.411 714.276 162.87 715.313C163.328 716.235 163.672 717.273 163.786 718.311C163.901 719.348 163.901 720.501 163.672 721.654C163.443 722.807 162.87 724.075 162.067 725.459C161.724 726.035 161.265 726.842 160.578 727.88C159.89 728.917 159.317 729.955 158.859 731.223C158.286 732.376 157.942 733.644 157.827 734.797C157.598 735.95 157.827 737.103 158.4 738.025C158.973 739.063 159.89 739.639 161.036 739.755C162.182 739.87 163.328 739.639 164.359 738.948C165.162 738.486 165.735 737.91 166.078 737.218C166.422 736.527 166.766 735.835 166.881 735.143C166.995 734.451 167.11 733.759 167.11 733.068C167.11 732.376 167.11 731.915 167.224 731.338L178.799 732.145C179.257 735.604 178.799 738.832 177.194 741.83C175.59 744.827 173.298 747.364 170.089 749.324C168.37 750.361 166.537 751.168 164.474 751.745C162.411 752.321 160.463 752.552 158.4 752.321C156.338 752.091 154.389 751.399 152.441 750.246C150.493 749.093 148.774 747.248 147.284 744.712C146.024 742.522 145.222 740.331 144.878 738.141C144.534 735.95 144.992 733.529 146.138 730.877C146.711 729.609 147.399 728.456 148.087 727.303C148.774 726.15 149.462 725.113 150.035 724.075C150.608 723.038 150.951 722.115 151.181 721.193C151.41 720.271 151.295 719.464 150.837 718.772L161.265 712.431Z" fill="white"/>
<path d="M287.323 710.125L295.23 723.038L283.083 730.647L275.176 717.735L287.323 710.125ZM300.158 730.417C300.846 731.569 301.419 732.607 301.992 733.76C302.565 734.913 302.908 736.066 303.138 737.334C303.367 738.602 303.252 739.87 303.023 741.254C302.679 742.637 302.106 744.136 301.189 745.75C300.846 746.442 300.273 747.364 299.47 748.517C298.668 749.67 297.981 751.054 297.408 752.437C296.835 753.821 296.376 755.204 296.147 756.703C295.918 758.086 296.147 759.354 296.835 760.507C297.522 761.776 298.668 762.352 300.043 762.467C301.419 762.583 302.794 762.237 304.054 761.545C304.971 760.968 305.659 760.277 306.117 759.47C306.576 758.663 306.919 757.856 307.034 757.049C307.263 756.242 307.263 755.435 307.263 754.627C307.263 753.82 307.263 753.244 307.378 752.668L321.015 753.59C321.588 757.625 321.015 761.43 319.181 765.119C317.348 768.693 314.597 771.69 310.816 773.996C308.868 775.264 306.576 776.187 304.284 776.878C301.877 777.57 299.47 777.801 297.064 777.57C294.657 777.34 292.251 776.533 289.959 775.034C287.667 773.65 285.604 771.46 283.771 768.462C282.166 765.926 281.249 763.39 280.906 760.738C280.562 758.086 281.02 755.204 282.395 752.206C283.083 750.708 283.771 749.324 284.687 747.941C285.49 746.557 286.292 745.289 286.979 744.136C287.667 742.868 288.125 741.83 288.354 740.793C288.584 739.755 288.469 738.833 288.011 738.026L300.158 730.417Z" fill="white"/>
<path d="M197.708 834.869C196.676 836.022 195.53 837.06 194.384 837.982C193.238 838.904 191.978 839.711 190.603 840.288C189.228 840.864 187.738 841.21 186.019 841.21C184.3 841.326 182.352 840.98 180.289 840.288C179.372 840.057 178.226 839.596 176.622 839.135C175.017 838.559 173.298 838.213 171.579 837.867C169.746 837.521 168.027 837.406 166.423 837.636C164.704 837.752 163.328 838.443 162.297 839.481C161.151 840.634 160.693 842.133 160.922 843.747C161.151 845.361 161.953 846.86 163.214 848.128C164.131 849.05 165.162 849.626 166.193 849.972C167.225 850.318 168.256 850.433 169.287 850.433C170.319 850.433 171.236 850.318 172.152 850.088C173.069 849.857 173.757 849.742 174.444 849.626L177.309 865.767C172.84 867.612 168.256 867.958 163.558 866.92C158.859 865.767 154.619 863.346 150.952 859.657C149.004 857.697 147.285 855.391 145.795 852.855C144.305 850.203 143.388 847.551 142.93 844.669C142.472 841.787 142.815 838.789 143.847 835.792C144.878 832.679 146.712 829.681 149.691 826.799C152.212 824.263 154.848 822.418 157.828 821.265C160.807 820.112 164.245 819.882 168.142 820.689C170.09 821.034 171.923 821.496 173.642 822.187C175.361 822.764 177.08 823.34 178.685 823.801C180.289 824.263 181.664 824.493 182.925 824.493C184.185 824.493 185.217 824.147 186.019 823.225L197.708 834.869ZM217.419 814.232L204.813 827.145L192.666 815.155L205.271 802.242L217.419 814.232Z" fill="white"/>
<path d="M332.818 905.657C332.36 906.695 331.902 907.617 331.329 908.54C330.756 909.462 330.183 910.269 329.381 910.961C328.578 911.652 327.662 912.229 326.63 912.69C325.484 913.151 324.224 913.382 322.619 913.497C321.932 913.497 321.129 913.612 319.869 913.612C318.723 913.612 317.462 913.728 316.202 913.958C314.941 914.189 313.795 914.535 312.764 914.996C311.732 915.457 310.93 916.264 310.472 917.186C310.013 918.224 310.013 919.262 310.586 920.299C311.159 921.337 311.962 922.029 313.108 922.605C313.91 922.951 314.712 923.181 315.514 923.066C316.316 923.066 317.004 922.836 317.577 922.605C318.264 922.374 318.837 922.029 319.296 921.683C319.869 921.337 320.327 921.106 320.671 920.876L326.401 930.791C323.88 933.096 321.015 934.48 317.692 934.826C314.368 935.172 311.045 934.595 307.721 933.096C306.002 932.289 304.284 931.252 302.679 929.868C301.075 928.485 299.814 926.986 298.897 925.141C297.981 923.297 297.408 921.337 297.293 919.031C297.178 916.841 297.751 914.304 299.012 911.768C300.043 909.577 301.419 907.617 303.023 906.234C304.627 904.735 306.919 903.813 309.555 903.352C310.93 903.121 312.191 903.006 313.566 903.006C314.827 903.006 316.087 902.89 317.233 902.775C318.379 902.66 319.41 902.429 320.213 902.199C321.015 901.853 321.588 901.392 321.932 900.585L332.818 905.657ZM340.84 887.442L335.569 898.971L324.797 894.013L330.068 882.484L340.84 887.442Z" fill="white"/>
<path d="M7.93271 872.569C8.2765 874.068 8.62032 875.452 8.84951 876.95C9.07871 878.449 9.07871 879.833 8.84951 881.216C8.62032 882.6 8.1619 884.098 7.35972 885.482C6.55753 886.981 5.41158 888.364 3.8072 889.863C3.11962 890.439 2.20283 891.246 0.942251 892.399C-0.318329 893.437 -1.46432 894.59 -2.6103 895.973C-3.75628 897.357 -4.67306 898.74 -5.47525 900.124C-6.16284 901.622 -6.39204 903.006 -6.04824 904.505C-5.58985 906.119 -4.67306 907.156 -3.18329 907.848C-1.69351 908.425 -0.20373 908.54 1.51524 908.079C2.77582 907.733 3.69258 907.272 4.49476 906.58C5.29695 905.888 5.86995 905.081 6.32834 904.274C6.78673 903.467 7.13053 902.545 7.47432 901.738C7.70352 900.931 8.04733 900.239 8.27652 899.547L22.9451 905.196C22.2575 909.808 20.3093 913.843 16.986 917.187C13.7772 920.53 9.65169 922.836 4.72397 924.104C2.08822 924.796 -0.662153 925.142 -3.5271 925.026C-6.39206 924.911 -9.14238 924.335 -11.6635 923.297C-14.2993 922.259 -16.5913 920.53 -18.5394 918.109C-20.6022 915.803 -22.092 912.69 -23.0088 908.77C-23.811 905.427 -24.0402 902.314 -23.5818 899.201C-23.1234 896.204 -21.519 893.206 -18.9978 890.324C-17.7373 888.941 -16.4767 887.557 -15.1015 886.404C-13.7263 885.251 -12.4657 884.098 -11.3198 882.945C-10.1738 881.792 -9.25701 880.755 -8.68402 879.717C-7.99643 878.68 -7.88183 877.642 -8.11103 876.489L7.93271 872.569ZM0.713043 845.822L5.06776 862.77L-10.8614 866.92L-15.2161 849.972L0.713043 845.822Z" fill="white"/>
<path d="M262.226 221.295L278.499 231.21L269.217 246.775L252.944 236.86L262.226 221.295ZM288.125 236.514C289.501 237.321 290.876 238.243 292.136 239.165C293.397 240.088 294.543 241.241 295.46 242.509C296.376 243.777 297.064 245.276 297.522 247.005C297.981 248.734 298.21 250.81 297.981 253.115C297.981 254.038 297.866 255.421 297.637 257.266C297.522 258.995 297.408 260.84 297.522 262.8C297.637 264.76 297.981 266.489 298.554 268.218C299.127 269.948 300.044 271.216 301.533 272.023C303.023 272.945 304.628 273.061 306.232 272.369C307.836 271.677 309.097 270.524 310.128 269.026C310.816 267.873 311.274 266.604 311.274 265.452C311.274 264.299 311.16 263.261 310.93 262.223C310.701 261.186 310.243 260.263 309.899 259.341C309.441 258.534 309.097 257.727 308.868 257.035L324.682 250.118C327.662 254.268 329.152 258.88 329.266 264.068C329.266 269.141 327.891 274.098 325.026 278.94C323.536 281.477 321.588 283.783 319.296 285.973C317.004 288.164 314.483 289.778 311.618 290.931C308.753 292.084 305.659 292.545 302.336 292.199C299.012 291.968 295.46 290.7 291.678 288.394C288.469 286.434 285.948 284.129 284 281.362C282.052 278.595 281.02 275.136 280.791 270.985C280.677 268.91 280.677 266.95 280.906 264.875C281.135 262.915 281.25 261.071 281.25 259.341C281.25 257.612 281.135 256.113 280.906 254.73C280.562 253.461 279.874 252.424 278.843 251.847L288.125 236.514Z" fill="white"/>
<path d="M348.29 215.647L336.944 216.684L335.913 205.962L347.258 204.925L348.29 215.647ZM330.412 217.491C329.495 217.606 328.464 217.606 327.547 217.606C326.63 217.606 325.714 217.491 324.797 217.145C323.88 216.799 323.078 216.338 322.161 215.762C321.359 215.07 320.557 214.148 319.755 212.995C319.411 212.534 318.952 211.842 318.494 210.92C317.921 209.997 317.348 209.075 316.546 208.268C315.858 207.346 315.056 206.654 314.139 205.962C313.223 205.386 312.306 205.04 311.389 205.155C310.358 205.27 309.555 205.732 308.982 206.654C308.409 207.576 308.18 208.499 308.295 209.651C308.409 210.458 308.639 211.15 308.982 211.727C309.326 212.303 309.785 212.764 310.358 213.225C310.816 213.571 311.389 213.917 311.847 214.148C312.306 214.378 312.764 214.609 313.108 214.955L307.951 223.947C305.086 223.025 302.679 221.296 300.846 218.875C299.012 216.454 297.981 213.571 297.637 210.228C297.523 208.499 297.523 206.654 297.866 204.809C298.21 202.965 298.898 201.235 299.815 199.737C300.731 198.122 302.107 196.854 303.825 195.817C305.544 194.779 307.722 194.087 310.243 193.857C312.42 193.626 314.483 193.857 316.431 194.548C318.379 195.24 320.098 196.508 321.588 198.468C322.39 199.391 323.078 200.428 323.651 201.466C324.224 202.503 324.797 203.426 325.485 204.233C326.058 205.04 326.631 205.732 327.318 206.308C327.891 206.884 328.579 207.115 329.381 207L330.412 217.491Z" fill="white"/>
<path d="M263.83 320.215C262.914 319.408 261.997 318.485 261.08 317.563C260.278 316.641 259.476 315.718 259.017 314.565C258.444 313.412 258.101 312.26 257.986 310.761C257.871 309.377 257.986 307.763 258.444 305.919C258.559 305.227 258.903 304.189 259.247 302.806C259.59 301.422 259.82 300.039 260.049 298.54C260.163 297.041 260.163 295.658 259.934 294.274C259.705 292.891 259.132 291.738 258.215 290.931C257.184 290.009 255.923 289.663 254.663 290.009C253.287 290.354 252.256 291.046 251.225 292.084C250.537 292.891 250.079 293.813 249.85 294.62C249.62 295.542 249.62 296.35 249.735 297.157C249.85 297.964 249.964 298.771 250.193 299.462C250.423 300.154 250.537 300.846 250.652 301.307L237.588 304.535C235.869 300.961 235.296 297.157 235.869 293.237C236.556 289.317 238.275 285.743 241.025 282.399C242.515 280.67 244.234 279.056 246.297 277.788C248.36 276.404 250.537 275.482 252.829 275.021C255.121 274.56 257.642 274.56 260.163 275.251C262.684 275.943 265.32 277.327 267.841 279.517C270.019 281.362 271.738 283.552 272.769 285.858C273.915 288.279 274.259 291.046 273.915 294.274C273.686 295.888 273.457 297.387 272.998 298.886C272.655 300.385 272.311 301.768 271.967 303.152C271.738 304.535 271.623 305.688 271.623 306.726C271.738 307.763 272.082 308.57 272.769 309.262L263.83 320.215ZM281.822 335.318L270.592 325.633L279.76 314.911L290.99 324.596L281.822 335.318Z" fill="white"/>
<path d="M323.192 323.904C323.078 324.711 322.963 325.402 322.849 326.209C322.734 327.016 322.505 327.708 322.046 328.285C321.703 328.976 321.13 329.553 320.557 330.129C319.869 330.706 319.067 331.167 318.035 331.628C317.577 331.859 317.004 332.089 316.202 332.32C315.4 332.666 314.598 333.012 313.795 333.473C312.993 333.934 312.306 334.395 311.618 335.087C311.045 335.663 310.701 336.355 310.587 337.162C310.472 337.969 310.816 338.776 311.389 339.237C311.962 339.814 312.764 340.16 313.681 340.16C314.368 340.275 314.941 340.16 315.4 339.929C315.858 339.698 316.317 339.468 316.775 339.122C317.119 338.776 317.463 338.43 317.806 338.084C318.036 337.738 318.379 337.393 318.608 337.162L324.911 342.581C323.765 344.771 322.046 346.385 319.869 347.423C317.692 348.46 315.285 348.922 312.649 348.691C311.274 348.576 309.899 348.23 308.409 347.653C307.034 347.077 305.774 346.385 304.742 345.348C303.711 344.31 302.794 343.042 302.221 341.543C301.648 340.044 301.419 338.2 301.648 336.124C301.763 334.395 302.336 332.781 303.023 331.397C303.825 330.014 305.086 328.861 306.805 327.823C307.722 327.362 308.524 326.901 309.441 326.555C310.357 326.209 311.16 325.864 311.962 325.518C312.764 325.172 313.337 324.826 313.795 324.365C314.254 324.019 314.598 323.442 314.598 322.866L323.192 323.904ZM324.338 309.492L323.536 318.6L314.941 317.793L315.744 308.685L324.338 309.492Z" fill="white"/>
<path d="M184.414 139.324L181.205 120.417L198.968 117.304L202.177 136.212L184.414 139.324ZM179.601 109.58C179.372 108.311 178.684 107.389 177.653 106.582C176.507 105.775 175.131 105.198 173.527 104.622C171.923 104.046 170.089 103.469 168.255 102.893C166.307 102.316 164.474 101.624 162.64 100.817C158.858 99.0881 155.993 96.8976 154.16 94.1306C152.326 91.3637 151.066 88.1355 150.378 84.4463C149.691 80.1805 149.805 76.376 150.722 73.1478C151.639 69.9197 153.243 67.1527 155.306 64.8469C157.369 62.5411 159.89 60.8118 162.64 59.4283C165.505 58.0448 168.37 57.1225 171.235 56.6614C176.736 55.739 181.778 56.2002 186.591 58.0448C191.29 59.8895 195.071 63.0023 197.822 67.3833L185.674 79.7194C185.101 79.2582 184.528 78.6818 183.841 77.99C183.153 77.2983 182.466 76.6065 181.549 75.9148C180.747 75.2231 179.715 74.7619 178.684 74.416C177.653 74.0702 176.392 73.9549 175.017 74.1854C173.183 74.5313 171.693 75.3383 170.433 76.6065C169.287 77.8747 168.828 79.3735 169.058 81.2181C169.287 82.8322 170.204 84.2157 171.579 85.3686C172.954 86.5215 174.558 87.4438 176.277 88.2508C177.996 89.0579 179.715 89.7496 181.434 90.2108C183.153 90.6719 184.414 91.1331 185.331 91.3637C187.623 92.0554 189.456 92.9777 190.831 94.0153C192.321 95.053 193.467 96.3211 194.269 97.5893C195.071 98.8575 195.759 100.356 196.217 101.855C196.676 103.354 197.02 104.968 197.249 106.582L179.601 109.58Z" fill="white"/>
<path d="M317.463 36.1399L333.965 45.5937L325.026 61.2731L308.524 51.8193L317.463 36.1399ZM343.476 51.3582C344.508 51.9346 345.768 52.0499 347.029 51.704C348.289 51.3582 349.665 50.6664 351.154 49.7441C352.644 48.8218 354.134 47.7842 355.853 46.7466C357.457 45.5937 359.176 44.5561 361.01 43.6337C364.792 41.7891 368.229 40.9821 371.553 41.3279C374.876 41.6738 378.2 42.7114 381.408 44.5561C385.19 46.7466 387.94 49.1677 389.889 52.0499C391.722 54.8169 392.868 57.8144 393.326 60.812C393.785 63.8095 393.556 66.9223 392.868 70.0352C392.066 73.148 391.035 75.915 389.545 78.4514C386.794 83.2935 383.242 86.9828 378.772 89.5192C374.303 92.0556 369.605 92.9779 364.448 92.4014L362.729 75.1079C363.416 74.9926 364.219 74.8774 365.25 74.8774C366.167 74.8774 367.198 74.6468 368.229 74.4162C369.261 74.1856 370.292 73.7245 371.209 73.148C372.126 72.5716 373.043 71.6492 373.73 70.381C374.647 68.767 374.991 67.0376 374.762 65.3083C374.532 63.5789 373.616 62.3107 372.126 61.3884C370.751 60.5814 369.146 60.3508 367.427 60.6967C365.708 61.0425 363.989 61.619 362.27 62.426C360.551 63.2331 358.947 64.1554 357.457 65.193C355.967 66.2306 354.821 66.9223 354.019 67.4988C352.071 68.767 350.238 69.6893 348.404 70.0352C346.685 70.4963 344.966 70.6116 343.476 70.381C341.872 70.2657 340.382 69.8046 339.007 69.1129C337.517 68.4211 336.142 67.7294 334.652 66.9223L343.476 51.3582Z" fill="white"/>
<path d="M-21.6332 804.778L-6.27705 799.014L-0.890928 813.656L-16.2471 819.42L-21.6332 804.778ZM2.43241 795.44C3.69299 794.979 5.06816 794.518 6.32874 794.172C7.70391 793.826 8.96449 793.711 10.3397 793.711C11.7148 793.826 13.09 794.172 14.4652 794.748C15.8404 795.325 17.3301 796.362 18.8199 797.746C19.5075 798.322 20.3097 799.129 21.4557 800.167C22.6017 801.204 23.7476 802.242 25.1228 803.164C26.498 804.087 27.8732 804.894 29.363 805.355C30.8527 805.931 32.2279 805.931 33.4885 805.47C34.9783 804.894 35.895 803.971 36.2388 802.473C36.6972 800.974 36.5826 799.59 36.0096 798.092C35.5512 796.939 34.9782 796.016 34.2907 795.44C33.6031 794.748 32.8009 794.287 31.8841 793.941C31.0819 793.595 30.1651 793.365 29.363 793.134C28.5608 793.019 27.8732 792.788 27.3002 792.558L31.0819 778.146C35.4366 778.377 39.4476 779.761 42.8855 782.527C46.3234 785.294 48.8446 788.868 50.5636 793.365C51.4804 795.786 52.0534 798.322 52.168 800.974C52.3972 803.626 52.168 806.277 51.3658 808.814C50.5636 811.35 49.1884 813.656 47.2403 815.846C45.2921 818.037 42.5417 819.651 38.9892 821.034C36.0096 822.187 33.0301 822.648 30.1652 822.418C27.3002 822.187 24.4352 821.15 21.4557 818.959C19.9659 817.922 18.7053 816.769 17.4448 815.616C16.1842 814.463 15.0382 813.31 13.8922 812.388C12.7462 811.465 11.7149 810.658 10.5689 810.197C9.5375 809.736 8.5061 809.621 7.47472 809.967L2.43241 795.44Z" fill="white"/>
<path d="M28.7902 759.815L11.8297 756.818L14.58 740.677L31.5405 743.675L28.7902 759.815ZM1.97421 755.434C0.484432 755.204 -0.89076 754.858 -2.26594 754.512C-3.64112 754.166 -4.90169 753.59 -6.16227 752.783C-7.30825 751.975 -8.45422 750.938 -9.371 749.67C-10.4024 748.401 -11.2046 746.672 -11.7776 744.597C-12.0068 743.79 -12.4652 742.522 -12.8089 741.023C-13.2673 739.524 -13.8403 737.91 -14.5279 736.296C-15.2155 734.682 -16.1323 733.298 -17.1637 732.03C-18.1951 730.762 -19.4556 730.07 -20.8308 729.725C-22.4352 729.494 -23.8104 729.84 -24.9564 730.877C-26.1023 731.915 -26.7899 733.298 -27.1337 735.028C-27.3629 736.296 -27.2483 737.449 -27.0192 738.371C-26.6754 739.409 -26.217 740.216 -25.644 741.023C-25.071 741.83 -24.498 742.522 -23.8104 743.098C-23.1228 743.675 -22.6644 744.251 -22.206 744.712L-33.2074 755.78C-37.1038 753.244 -39.8541 749.785 -41.5731 745.519C-43.2921 741.254 -43.6359 736.642 -42.8337 731.569C-42.3753 728.917 -41.5731 726.381 -40.3125 723.729C-39.0519 721.193 -37.4476 718.887 -35.3848 717.043C-33.322 715.198 -30.9155 713.814 -27.9359 712.892C-25.071 711.97 -21.633 711.855 -17.7367 712.546C-14.4133 713.123 -11.5484 714.276 -9.02722 716.005C-6.50606 717.734 -4.55791 720.271 -2.95353 723.729C-2.15134 725.459 -1.57835 727.188 -1.11995 728.917C-0.661561 730.647 -0.0885495 732.261 0.369843 733.76C0.942834 735.258 1.5158 736.527 2.20339 737.449C2.89097 738.487 3.80778 739.063 4.83916 739.294L1.97421 755.434Z" fill="white"/>
<path d="M47.6987 713.815C48.1571 713.354 48.6155 712.892 49.1884 712.431C49.6468 711.97 50.2199 711.624 50.7928 711.394C51.3658 711.163 52.0534 711.048 52.741 710.932C53.4286 710.932 54.3454 711.048 55.2622 711.278C55.606 711.394 56.1789 711.509 56.8665 711.739C57.5541 711.97 58.2417 712.085 59.0439 712.316C59.8461 712.431 60.5337 712.431 61.3358 712.431C62.0234 712.316 62.711 712.085 63.1694 711.624C63.6278 711.048 63.857 710.471 63.7424 709.78C63.6278 709.088 63.284 708.511 62.711 707.935C62.2526 707.589 61.9088 707.243 61.4504 707.128C60.9921 707.013 60.5336 706.897 60.0753 707.013C59.6169 707.013 59.2731 707.128 58.8147 707.243C58.4709 707.358 58.1271 707.358 57.7833 707.474L56.5227 700.556C58.4709 699.749 60.4191 699.519 62.4818 699.98C64.5446 700.441 66.3782 701.479 67.9825 703.093C68.8993 703.9 69.5869 704.937 70.2745 705.975C70.9621 707.128 71.3059 708.281 71.5351 709.549C71.7643 710.817 71.6497 712.085 71.1913 713.354C70.7329 714.622 69.9307 716.005 68.7847 717.273C67.7533 718.426 66.6073 719.233 65.3468 719.694C64.0862 720.271 62.5964 720.271 60.8775 720.04C60.0753 719.925 59.2731 719.694 58.4709 719.464C57.6687 719.233 56.9811 719.003 56.2935 718.772C55.6059 718.542 55.033 718.542 54.46 718.542C53.887 718.542 53.4286 718.772 53.0848 719.118L47.6987 713.815ZM39.2184 722.807L44.6045 717.158L49.876 722.231L44.49 727.88L39.2184 722.807Z" fill="white"/>
<path d="M90.7874 683.147L74.3998 677.383L79.9006 661.819L96.2881 667.583L90.7874 683.147ZM64.7736 674.27C63.3984 673.809 62.0233 673.232 60.6481 672.656C59.2729 672.08 58.1269 671.272 57.0956 670.235C56.0642 669.313 55.1474 668.044 54.3452 666.546C53.543 665.047 53.0846 663.317 52.7408 661.127C52.6262 660.205 52.397 659.052 52.2824 657.438C52.0532 655.824 51.8241 654.21 51.3657 652.48C50.9073 650.751 50.3343 649.252 49.4175 647.753C48.6153 646.37 47.4693 645.332 46.0941 644.871C44.6044 644.295 43.1146 644.525 41.854 645.447C40.4788 646.37 39.562 647.638 38.9891 649.252C38.5307 650.405 38.4161 651.558 38.6453 652.595C38.7599 653.633 39.1036 654.555 39.562 655.478C40.0204 656.4 40.4788 657.092 41.0518 657.784C41.6248 658.475 42.0832 659.052 42.3124 659.628L29.4774 668.736C26.0395 665.508 23.8621 661.703 22.8307 657.092C21.9139 652.48 22.2577 647.869 23.9767 643.026C24.8935 640.49 26.1541 638.069 27.7585 635.648C29.3628 633.342 31.4256 631.382 33.7175 629.768C36.0095 628.269 38.7599 627.232 41.854 626.886C44.9482 626.54 48.2715 627.001 52.0532 628.269C55.262 629.422 58.0123 631.036 60.1897 633.112C62.3671 635.187 63.9714 638.184 64.8882 641.874C65.3466 643.718 65.6904 645.563 65.9196 647.292C66.1488 649.137 66.378 650.751 66.6072 652.365C66.8364 653.979 67.2948 655.247 67.7532 656.4C68.2116 657.553 69.0138 658.245 70.1597 658.591L64.7736 674.27Z" fill="white"/>
<path d="M109.696 911.768L90.4434 905.312L96.5171 886.981L115.77 893.437L109.696 911.768ZM79.2128 901.968C77.6084 901.392 76.004 900.816 74.3996 900.124C72.7953 899.432 71.4201 898.51 70.1595 897.472C68.8989 896.319 67.8675 894.936 66.9508 893.206C66.034 891.477 65.3464 889.402 65.0026 886.865C64.7734 885.828 64.5442 884.444 64.315 882.484C64.0858 880.64 63.6274 878.68 63.0544 876.72C62.4814 874.76 61.6792 872.915 60.7625 871.301C59.7311 869.687 58.4705 868.534 56.8661 868.073C55.0326 867.497 53.4282 867.727 51.8238 868.765C50.3341 869.802 49.188 871.301 48.6151 873.146C48.1567 874.529 48.0421 875.913 48.2713 877.066C48.5005 878.219 48.8443 879.372 49.4173 880.409C49.9902 881.447 50.5632 882.369 51.2508 883.061C51.9384 883.868 52.3968 884.56 52.8552 885.251L38.0721 896.204C33.9465 892.515 31.3108 888.134 30.0502 882.83C28.7896 877.527 29.1334 871.993 31.0816 866.344C32.113 863.346 33.4881 860.464 35.3217 857.697C37.1553 854.93 39.4472 852.624 42.1976 850.78C44.948 848.935 48.0421 847.782 51.5946 847.206C55.1472 846.629 59.1581 847.206 63.5128 848.589C67.2945 849.857 70.5033 851.702 73.1391 854.123C75.7748 856.544 77.723 859.888 78.869 864.269C79.442 866.344 79.9003 868.534 80.1295 870.61C80.3587 872.685 80.7025 874.645 81.0463 876.489C81.3901 878.334 81.8485 879.833 82.5361 881.216C83.1091 882.484 84.1405 883.407 85.2864 883.753L79.2128 901.968Z" fill="white"/>
<path d="M-19.5706 685.915L-8.22531 684.877L-7.19393 695.599L-18.5391 696.637L-19.5706 685.915ZM-1.69323 684.07C-0.776448 683.955 0.254936 683.955 1.17172 683.955C2.08851 683.955 3.00529 684.07 3.92207 684.416C4.83886 684.762 5.64107 685.223 6.55785 685.799C7.36004 686.491 8.16223 687.413 8.96442 688.566C9.30822 689.027 9.76658 689.719 10.225 690.642C10.798 691.564 11.371 692.486 12.1732 693.293C12.8607 694.215 13.6629 694.907 14.5797 695.599C15.4965 696.175 16.4133 696.521 17.3301 696.406C18.3615 696.291 19.1637 695.83 19.7366 694.907C20.3096 693.985 20.5388 693.063 20.4242 691.91C20.3096 691.103 20.0804 690.411 19.7366 689.834C19.3928 689.258 18.9344 688.797 18.3614 688.336C17.9031 687.99 17.3301 687.644 16.8717 687.413C16.4133 687.183 15.9549 686.952 15.6111 686.606L20.768 677.614C23.633 678.536 26.0395 680.265 27.8731 682.687C29.7067 685.108 30.7381 687.99 31.0819 691.333C31.1965 693.063 31.1964 694.907 30.8526 696.752C30.5089 698.597 29.8213 700.326 28.9045 701.825C27.9877 703.439 26.6125 704.707 24.8936 705.745C23.1746 706.782 20.9972 707.474 18.4761 707.704C16.2987 707.935 14.2359 707.704 12.2878 707.013C10.3396 706.321 8.62062 705.053 7.13084 703.093C6.32865 702.171 5.64104 701.133 5.06805 700.095C4.49506 699.058 3.9221 698.135 3.23451 697.328C2.66152 696.521 2.08852 695.83 1.40093 695.253C0.827941 694.677 0.140331 694.446 -0.661856 694.561L-1.69323 684.07Z" fill="white"/>
<path d="M108.779 657.092L119.437 658.821L117.833 668.967L107.175 667.237L108.779 657.092ZM125.74 659.743C126.657 659.859 127.573 660.089 128.376 660.32C129.292 660.551 130.095 660.896 130.782 661.358C131.584 661.819 132.272 662.51 132.845 663.317C133.418 664.124 133.991 665.162 134.449 666.43C134.678 667.007 134.908 667.699 135.137 668.621C135.481 669.543 135.824 670.581 136.283 671.618C136.741 672.656 137.314 673.463 138.002 674.27C138.689 675.077 139.492 675.538 140.408 675.654C141.44 675.769 142.242 675.538 142.929 674.847C143.617 674.155 144.075 673.232 144.305 672.195C144.419 671.388 144.419 670.696 144.19 670.12C143.961 669.543 143.732 668.967 143.273 668.506C142.929 668.044 142.471 667.583 142.127 667.237C141.669 666.891 141.325 666.546 141.096 666.2L147.972 659.167C150.493 660.781 152.212 662.856 153.243 665.508C154.275 668.16 154.618 671.157 154.045 674.27C153.816 675.884 153.243 677.614 152.556 679.228C151.754 680.842 150.837 682.225 149.576 683.493C148.316 684.646 146.711 685.569 144.878 686.145C143.044 686.722 140.867 686.837 138.46 686.376C136.397 686.03 134.564 685.338 132.959 684.3C131.355 683.263 130.095 681.649 129.063 679.458C128.605 678.421 128.146 677.268 127.803 676.23C127.459 675.192 127.115 674.155 126.771 673.232C126.427 672.31 126.084 671.503 125.625 670.927C125.167 670.35 124.594 669.889 123.906 669.774L125.74 659.743Z" fill="white"/>
<path d="M-4.78751 624.004C-4.67291 623.082 -4.55833 622.044 -4.44373 621.122C-4.32913 620.199 -3.98535 619.277 -3.52696 618.47C-3.06857 617.663 -2.49558 616.856 -1.69339 616.164C-0.891212 615.473 0.140182 614.781 1.40075 614.204C1.97374 613.974 2.66133 613.628 3.6927 613.282C4.72408 612.936 5.64087 612.36 6.67225 611.898C7.70363 611.322 8.5058 610.63 9.30798 609.939C10.1102 609.132 10.454 608.324 10.5686 607.287C10.6832 606.249 10.3394 605.327 9.53719 604.635C8.73501 603.943 7.81823 603.598 6.67225 603.482C5.87007 603.367 5.06786 603.482 4.49487 603.828C3.92188 604.059 3.3489 604.405 2.89051 604.866C2.43212 605.327 1.97372 605.788 1.62993 606.249C1.28614 606.71 0.942357 607.056 0.713163 607.402L-7.19406 600.715C-5.81889 597.948 -3.75614 595.988 -1.0058 594.605C1.74454 593.221 4.72407 592.645 8.0474 592.991C9.76636 593.106 11.5999 593.567 13.3189 594.144C15.0379 594.836 16.6422 595.758 18.0174 597.026C19.3926 598.294 20.4239 599.793 21.2261 601.753C22.0283 603.598 22.2575 605.903 22.0283 608.44C21.7991 610.63 21.2261 612.706 20.3094 614.435C19.3926 616.164 17.7882 617.663 15.6108 618.931C14.5795 619.508 13.4335 620.084 12.4021 620.545C11.2562 621.006 10.2248 621.352 9.30798 621.813C8.3912 622.275 7.58902 622.736 7.01603 623.197C6.44304 623.658 6.09925 624.35 5.98466 625.042L-4.78751 624.004ZM-6.04809 642.105L-5.13132 630.691L5.64084 631.613L4.72408 643.027L-6.04809 642.105Z" fill="white"/>
<path d="M70.7326 136.211C70.5034 137.018 70.618 137.71 70.9618 138.517C71.4202 139.324 71.9932 140.016 72.6808 140.823C73.4829 141.63 74.2851 142.437 75.2019 143.359C76.1187 144.166 77.0355 145.204 77.8377 146.242C79.5566 148.317 80.4734 150.392 80.7026 152.583C80.9318 154.658 80.7026 156.964 80.0151 159.154C79.2129 161.806 78.0669 163.881 76.5771 165.495C75.0873 167.109 73.3683 168.147 71.5348 168.839C69.7012 169.53 67.753 169.761 65.8049 169.761C63.8567 169.761 61.9085 169.415 60.075 168.839C56.637 167.801 53.8867 166.072 51.8239 163.535C49.6466 161.114 48.5006 158.232 48.1568 155.004L58.5852 151.545C58.8144 152.006 58.929 152.467 59.0436 153.044C59.1582 153.62 59.3874 154.197 59.7312 154.888C60.075 155.465 60.4188 156.041 60.9918 156.618C61.4502 157.194 62.1378 157.54 63.0545 157.771C64.2005 158.117 65.2319 158.117 66.2633 157.771C67.2947 157.425 67.9823 156.618 68.3261 155.58C68.6698 154.543 68.5552 153.505 68.0968 152.467C67.6384 151.43 67.0655 150.392 66.2633 149.47C65.4611 148.547 64.6589 147.625 63.8567 146.818C63.0546 146.011 62.367 145.435 62.0232 144.973C60.9918 143.936 60.1896 142.898 59.6166 141.861C59.1582 140.823 58.8144 139.785 58.6998 138.748C58.5852 137.71 58.6998 136.788 58.8144 135.75C59.0436 134.713 59.2728 133.79 59.6166 132.753L70.7326 136.211ZM76.5771 117.88L72.91 129.525L61.9086 126.066L65.6903 114.422L76.5771 117.88Z" fill="white"/>
<path d="M-16.4765 29.7987C-16.3619 30.6057 -15.9035 31.1822 -15.1013 31.6433C-14.4137 32.1045 -13.497 32.4504 -12.4656 32.7962C-11.4342 33.1421 -10.2882 33.488 -9.02763 33.7185C-7.76705 34.0644 -6.62106 34.4103 -5.36048 34.8714C-2.83932 35.9091 -1.00575 37.1772 0.254825 39.0219C1.5154 40.7512 2.31758 42.8265 2.89057 45.1323C3.46356 47.8992 3.46356 50.205 2.89057 52.3955C2.31758 54.4708 1.4008 56.3154 0.140219 57.8142C-1.12036 59.3129 -2.61014 60.4658 -4.44371 61.5035C-6.16268 62.4258 -7.99626 63.1175 -9.82983 63.4634C-13.2678 64.1551 -16.5911 64.0398 -19.5707 63.0022C-22.6648 61.9646 -25.0714 60.0047 -27.0196 57.353L-19.5707 49.2827C-19.2269 49.5133 -18.7685 49.9744 -18.4247 50.3203C-17.9663 50.7815 -17.5079 51.1273 -16.9349 51.5885C-16.3619 51.9344 -15.7889 52.2802 -15.1013 52.5108C-14.4137 52.7414 -13.6116 52.7414 -12.6948 52.5108C-11.5488 52.2802 -10.632 51.7038 -9.82983 50.8968C-9.14224 50.0897 -8.79844 49.0521 -9.02763 48.0145C-9.25683 46.9769 -9.82982 46.1699 -10.7466 45.4781C-11.6634 44.7864 -12.6948 44.2099 -13.8408 43.7488C-14.9867 43.2876 -16.1327 42.9418 -17.1641 42.5959C-18.3101 42.3653 -19.1123 42.1347 -19.6852 41.9041C-21.175 41.5583 -22.321 40.9818 -23.2378 40.2901C-24.1546 39.5983 -24.9568 38.9066 -25.5298 38.0996C-26.1027 37.2925 -26.5612 36.3702 -26.9049 35.4479C-27.2487 34.5256 -27.4779 33.488 -27.7071 32.4504L-16.4765 29.7987ZM-20.1437 10.8911L-17.6225 22.8813L-28.8531 25.3024L-31.3743 13.3122L-20.1437 10.8911Z" fill="white"/>
<path d="M132.616 193.164L117.374 195.24L115.426 180.828L130.668 178.753L132.616 193.164ZM108.55 196.162C107.519 196.277 106.717 196.854 106.144 197.661C105.456 198.583 104.883 199.621 104.425 200.889C103.966 202.157 103.393 203.656 102.935 205.155C102.476 206.653 101.789 208.152 101.101 209.651C99.6115 212.648 97.7779 214.954 95.4859 216.338C93.194 217.721 90.5582 218.644 87.5786 219.105C84.1407 219.566 81.0466 219.335 78.5254 218.528C76.0042 217.606 73.8269 216.338 71.9933 214.608C70.2744 212.879 68.8992 210.804 67.8678 208.498C66.8364 206.192 66.1488 203.771 65.9196 201.465C65.3466 196.969 65.805 192.819 67.4094 189.129C69.0138 185.325 71.6495 182.442 75.2021 180.252L84.7137 190.397C84.3699 190.859 83.7969 191.32 83.2239 191.781C82.6509 192.242 82.0779 192.819 81.505 193.51C80.932 194.202 80.5882 195.009 80.2444 195.816C79.9006 196.738 79.786 197.661 80.0152 198.814C80.2444 200.312 80.8174 201.581 81.8487 202.618C82.8801 203.656 84.0261 204.002 85.5159 203.886C86.7765 203.656 87.9224 203.079 88.8392 202.042C89.756 201.004 90.6728 199.736 91.3604 198.352C92.048 196.969 92.621 195.586 93.0794 194.202C93.5378 192.819 93.8816 191.781 94.1108 191.089C94.7983 189.245 95.4859 187.861 96.4027 186.708C97.3195 185.555 98.3509 184.633 99.3823 184.057C100.414 183.365 101.674 182.904 102.82 182.673C104.081 182.327 105.341 182.097 106.602 181.981L108.55 196.162Z" fill="white"/>
<path d="M253.059 64.3861L248.016 74.6469L238.39 69.8048L243.432 59.5439L253.059 64.3861ZM244.922 80.5267C244.578 81.2185 244.578 81.9102 244.808 82.7172C245.037 83.5243 245.495 84.3313 246.068 85.1383C246.641 85.9454 247.329 86.8677 248.016 87.79C248.704 88.7123 249.391 89.7499 249.964 90.7875C251.225 92.9781 251.798 95.0533 251.683 97.0132C251.569 98.9731 251.11 101.048 250.079 103.008C248.933 105.314 247.558 107.159 245.954 108.312C244.349 109.58 242.63 110.272 240.797 110.617C238.963 110.963 237.129 110.963 235.296 110.617C233.462 110.272 231.743 109.695 230.139 108.888C227.159 107.389 224.867 105.314 223.263 102.778C221.659 100.241 220.971 97.3591 221.086 94.2462L231.285 92.6322C231.4 93.0933 231.514 93.5545 231.514 94.131C231.514 94.7074 231.743 95.2839 231.858 95.8603C232.087 96.4368 232.316 97.0132 232.775 97.5897C233.119 98.1661 233.692 98.6273 234.494 98.9731C235.525 99.4343 236.442 99.6649 237.473 99.4343C238.505 99.2037 239.192 98.6273 239.765 97.7049C240.224 96.7826 240.338 95.8603 239.994 94.8227C239.765 93.7851 239.307 92.7475 238.734 91.7099C238.161 90.6723 237.588 89.7499 236.9 88.9429C236.213 88.1359 235.754 87.4441 235.41 86.983C234.608 85.8301 234.035 84.7925 233.692 83.7549C233.348 82.7172 233.233 81.6796 233.348 80.7573C233.348 79.835 233.577 78.9127 233.921 77.9903C234.265 77.068 234.608 76.261 235.067 75.3387L244.922 80.5267Z" fill="white"/>
<path d="M249.047 214.033L239.307 218.414L235.181 209.19L244.922 204.809L249.047 214.033ZM233.691 220.604C233.004 220.835 232.66 221.411 232.316 222.103C232.087 222.795 231.858 223.602 231.743 224.639C231.628 225.562 231.628 226.599 231.514 227.752C231.514 228.905 231.399 229.943 231.17 231.095C230.826 233.401 229.909 235.246 228.649 236.629C227.388 238.013 225.784 239.166 223.95 239.973C221.773 241.01 219.71 241.356 217.762 241.356C215.929 241.241 214.21 240.78 212.72 239.973C211.23 239.166 209.855 238.013 208.823 236.745C207.677 235.361 206.761 233.978 206.188 232.479C204.927 229.597 204.469 226.714 204.813 223.947C205.156 221.065 206.302 218.644 208.25 216.569L216.502 221.526C216.387 221.872 216.043 222.333 215.814 222.679C215.47 223.14 215.241 223.602 215.012 224.178C214.783 224.755 214.668 225.331 214.553 226.023C214.553 226.714 214.668 227.291 214.897 228.098C215.356 229.02 215.929 229.712 216.845 230.288C217.648 230.75 218.564 230.75 219.481 230.404C220.283 230.058 220.971 229.366 221.315 228.444C221.773 227.521 222.002 226.599 222.231 225.446C222.461 224.409 222.575 223.371 222.575 222.333C222.575 221.296 222.69 220.604 222.69 220.028C222.804 218.759 223.034 217.607 223.377 216.684C223.721 215.762 224.294 214.955 224.867 214.263C225.44 213.571 226.128 213.11 226.93 212.649C227.732 212.188 228.534 211.842 229.337 211.381L233.691 220.604Z" fill="white"/>
<path d="M234.379 270.409L220.284 271.101L219.711 257.727L233.806 257.036L234.379 270.409ZM212.033 271.101C211.116 271.101 210.314 271.562 209.626 272.254C208.938 273.061 208.365 273.983 207.792 275.136C207.219 276.289 206.646 277.557 206.073 278.941C205.5 280.324 204.813 281.592 204.011 282.976C202.406 285.627 200.458 287.587 198.281 288.625C196.103 289.778 193.582 290.354 190.832 290.47C187.623 290.585 184.873 290.239 182.581 289.201C180.289 288.164 178.455 286.78 176.965 285.051C175.476 283.322 174.444 281.362 173.642 279.056C172.955 276.865 172.496 274.675 172.382 272.484C172.152 268.334 172.955 264.645 174.788 261.301C176.622 257.958 179.257 255.537 182.581 253.807L190.488 263.953C190.144 264.299 189.571 264.645 188.998 265.106C188.425 265.452 187.852 266.028 187.279 266.605C186.706 267.181 186.248 267.873 185.904 268.565C185.56 269.372 185.331 270.294 185.446 271.331C185.56 272.715 185.904 273.868 186.821 274.905C187.623 275.943 188.769 276.404 190.03 276.289C191.29 276.289 192.322 275.713 193.238 274.79C194.155 273.868 195.072 272.83 195.76 271.562C196.562 270.294 197.135 269.141 197.708 267.873C198.281 266.605 198.625 265.682 198.968 265.106C199.656 263.492 200.573 262.224 201.489 261.301C202.406 260.379 203.438 259.572 204.469 259.111C205.5 258.65 206.646 258.304 207.792 258.073C208.938 257.958 210.199 257.843 211.345 257.727L212.033 271.101Z" fill="white"/>
<path d="M104.998 70.7264C105.456 69.5735 105.456 68.4206 104.883 67.1524C104.31 65.8842 103.508 64.616 102.476 63.2325C101.445 61.849 100.185 60.4655 98.9239 58.9668C97.5488 57.468 96.4028 55.8539 95.2568 54.1246C92.8502 50.6659 91.7042 47.2072 91.5896 43.8638C91.475 40.5204 92.1626 37.0617 93.5378 33.603C95.1422 29.5678 97.205 26.455 99.8407 24.1492C102.362 21.9587 105.112 20.3446 108.092 19.5376C111.071 18.7305 114.051 18.5 117.145 18.8458C120.239 19.1917 123.219 19.8834 125.854 21.0363C131.011 23.1116 135.137 26.2244 138.116 30.3748C141.096 34.5253 142.7 39.1369 142.815 44.2096L126.084 48.2448C125.854 47.5531 125.625 46.746 125.511 45.8237C125.396 44.9014 125.052 43.8638 124.708 42.9415C124.365 41.9038 123.792 40.9815 122.99 40.0592C122.302 39.1369 121.271 38.4451 120.01 37.984C118.291 37.2922 116.572 37.177 114.853 37.6381C113.134 38.0993 111.988 39.1369 111.3 40.7509C110.728 42.2497 110.613 43.8638 111.186 45.5931C111.759 47.3225 112.561 48.9365 113.592 50.5506C114.624 52.1647 115.77 53.6634 116.916 54.9316C118.062 56.1998 118.979 57.2374 119.552 58.0445C121.041 59.8891 122.187 61.6184 122.875 63.2325C123.562 64.9619 123.906 66.5759 123.906 68.0747C123.906 69.6888 123.677 71.1875 123.333 72.6863C122.875 74.1851 122.302 75.7991 121.729 77.2979L104.998 70.7264ZM93.4232 98.6266L100.643 80.8719L117.26 87.674L110.04 105.429L93.4232 98.6266Z" fill="white"/>
<path d="M24.7791 204.348L19.7368 191.32L31.8842 186.593L36.9265 199.621L24.7791 204.348ZM17.101 183.711C16.7572 182.904 16.1843 182.212 15.2675 181.866C14.3507 181.52 13.3193 181.175 12.0587 181.059C10.7981 180.829 9.42294 180.713 8.04776 180.598C6.67258 180.483 5.18282 180.252 3.69305 179.906C0.713492 179.215 -1.57848 178.062 -3.29745 176.332C-5.01642 174.603 -6.3916 172.528 -7.30839 169.991C-8.45437 166.994 -8.91277 164.342 -8.68358 161.921C-8.45438 159.5 -7.76677 157.31 -6.62079 155.35C-5.47481 153.39 -3.98504 151.776 -2.15147 150.392C-0.317898 149.009 1.63027 147.971 3.57844 147.164C7.36018 145.665 11.0273 145.319 14.6945 145.896C18.3616 146.588 21.4557 148.202 24.0915 150.853L17.2156 161.345C16.7572 161.114 16.2988 160.768 15.7259 160.307C15.1529 159.846 14.5799 159.5 13.8923 159.154C13.2047 158.808 12.4025 158.578 11.6003 158.462C10.7981 158.347 9.88135 158.462 8.96457 158.808C7.70399 159.27 6.7872 160.077 6.09961 161.114C5.41202 162.152 5.2974 163.305 5.7558 164.573C6.21419 165.726 7.01639 166.533 8.16237 167.109C9.30835 167.686 10.5689 168.147 11.9441 168.493C13.3193 168.839 14.5798 169.069 15.955 169.184C17.2156 169.3 18.247 169.415 18.9346 169.53C20.6536 169.761 22.0288 170.107 23.2893 170.683C24.4353 171.26 25.4667 171.951 26.2689 172.758C27.071 173.565 27.7587 174.488 28.217 175.525C28.79 176.563 29.2484 177.601 29.5922 178.754L17.101 183.711Z" fill="white"/>
<path d="M152.327 190.398L143.846 174.488L158.859 166.418L167.339 182.328L152.327 190.398ZM139.148 165.034C138.575 163.996 137.658 163.305 136.512 162.959C135.251 162.613 133.876 162.382 132.272 162.382C130.667 162.382 128.834 162.382 127 162.498C125.167 162.613 123.219 162.498 121.27 162.382C117.374 162.037 114.165 160.884 111.644 158.924C109.123 156.964 107.06 154.427 105.456 151.315C103.508 147.741 102.476 144.282 102.362 141.054C102.247 137.826 102.82 134.943 103.966 132.292C105.112 129.64 106.831 127.219 109.008 125.144C111.186 123.068 113.478 121.339 115.884 120.071C120.583 117.535 125.281 116.382 129.98 116.728C134.793 116.958 139.033 118.572 142.815 121.685L135.595 136.442C135.022 136.212 134.22 135.866 133.532 135.405C132.73 134.943 131.928 134.597 130.897 134.252C129.98 133.906 128.949 133.79 127.803 133.79C126.771 133.79 125.625 134.136 124.479 134.713C122.875 135.52 121.843 136.673 121.156 138.171C120.468 139.67 120.468 141.169 121.27 142.668C121.958 144.051 123.104 144.974 124.708 145.665C126.313 146.242 127.917 146.703 129.751 146.818C131.584 147.049 133.303 147.049 135.022 147.049C136.741 146.934 138.002 146.934 138.919 146.934C141.096 146.934 143.044 147.164 144.648 147.741C146.253 148.317 147.628 149.009 148.774 149.931C149.92 150.853 150.951 151.891 151.754 153.159C152.556 154.427 153.358 155.696 154.16 157.079L139.148 165.034Z" fill="white"/>
<path d="M40.1353 60.6967C39.5623 62.0802 39.5624 63.579 40.2499 64.9625C40.9375 66.4612 41.8543 67.96 43.1149 69.6894C44.3755 71.3034 45.8652 73.0328 47.4696 74.8774C49.074 76.6068 50.5638 78.5667 51.939 80.6419C54.8039 84.9076 56.1791 88.9428 56.2937 92.978C56.4083 97.0131 55.6061 101.164 53.8871 105.314C51.939 110.156 49.4178 113.961 46.3236 116.612C43.2295 119.264 39.9062 121.109 36.3536 122.031C32.8011 122.953 29.1339 123.299 25.3522 122.838C21.5704 122.377 18.1325 121.455 14.8091 120.186C8.62081 117.65 3.69309 113.845 0.0259474 108.888C-3.6412 103.931 -5.47476 98.3966 -5.58936 92.1709L14.6945 87.444C14.9237 88.2511 15.1529 89.2887 15.3821 90.4416C15.6113 91.5945 15.8405 92.7474 16.4135 94.0156C16.8719 95.1685 17.5595 96.3214 18.4763 97.4743C19.3931 98.5119 20.5391 99.4342 22.1434 100.011C24.2062 100.818 26.269 101.048 28.3317 100.472C30.3945 99.8954 31.7697 98.6272 32.5718 96.6672C33.2594 94.8226 33.374 92.8627 32.6864 90.9027C31.9989 88.8275 31.0821 86.8676 29.8215 84.9076C28.5609 82.9477 27.1857 81.2184 25.8106 79.6043C24.4354 77.9902 23.2894 76.7221 22.6018 75.7997C20.7682 73.6092 19.5077 71.534 18.7055 69.4588C17.9033 67.3836 17.5595 65.4236 17.4449 63.579C17.4449 61.7343 17.6741 59.7744 18.2471 57.9298C18.8201 56.0851 19.3931 54.2405 20.1952 52.3958L40.1353 60.6967ZM54.3455 27.1473L45.6361 48.476L25.5814 40.1751L34.2908 18.8464L54.3455 27.1473Z" fill="white"/>
<path d="M20.3097 327.824L8.16228 307.533L27.1856 296.004L39.333 316.295L20.3097 327.824ZM1.5156 295.658C0.713414 294.39 -0.432574 293.467 -2.03695 293.121C-3.64132 292.776 -5.47489 292.545 -7.65225 292.66C-9.82962 292.776 -12.1216 292.891 -14.5281 293.121C-16.9347 293.352 -19.4559 293.352 -21.977 293.237C-27.1339 293.006 -31.3741 291.623 -34.812 289.317C-38.1354 286.896 -41.0003 283.783 -43.4069 279.863C-46.1573 275.251 -47.647 270.87 -47.9908 266.72C-48.3346 262.57 -47.7616 258.65 -46.3865 255.191C-45.0113 251.617 -42.9485 248.504 -40.3127 245.622C-37.677 242.74 -34.812 240.434 -31.7179 238.589C-25.8734 235.015 -19.7997 233.286 -13.4968 233.286C-7.19386 233.286 -1.57856 235.246 3.57836 238.935L-4.9019 258.534C-5.70409 258.304 -6.62087 257.843 -7.76686 257.266C-8.79824 256.69 -9.94422 256.229 -11.2048 255.883C-12.4654 255.537 -13.8406 255.422 -15.2157 255.422C-16.5909 255.537 -18.0807 255.998 -19.5705 256.805C-21.5187 257.958 -22.8938 259.572 -23.696 261.532C-24.4982 263.492 -24.3836 265.452 -23.2376 267.412C-22.2062 269.141 -20.6018 270.409 -18.5391 271.101C-16.4763 271.793 -14.1844 272.254 -11.8924 272.369C-9.48584 272.484 -7.30848 272.484 -5.13111 272.254C-2.95375 272.023 -1.23478 271.908 -0.0888002 271.908C2.77616 271.677 5.29732 271.908 7.47469 272.6C9.65205 273.176 11.4856 274.099 13.09 275.251C14.6944 276.404 16.0696 277.788 17.2155 279.287C18.3615 280.901 19.5075 282.515 20.5389 284.244L1.5156 295.658Z" fill="white"/>
<path d="M52.8557 216.684L48.501 225.331L40.3645 221.18L44.7193 212.533L52.8557 216.684ZM45.7506 230.403C45.5214 230.98 45.4069 231.556 45.6361 232.248C45.8653 232.94 46.209 233.632 46.6674 234.323C47.1258 235.015 47.6988 235.822 48.2718 236.629C48.8448 237.436 49.4178 238.243 49.9908 239.165C51.0221 241.01 51.4805 242.855 51.4805 244.469C51.3659 246.198 50.9076 247.928 50.1054 249.542C49.074 251.502 47.928 253 46.5528 254.038C45.1776 255.076 43.6879 255.767 42.1981 255.998C40.7083 256.228 39.104 256.228 37.4996 255.998C35.8952 255.652 34.52 255.191 33.1448 254.499C30.6237 253.231 28.6756 251.502 27.3004 249.311C25.9252 247.121 25.3522 244.699 25.4668 242.048L34.1763 240.78C34.2909 241.125 34.2908 241.587 34.4054 242.048C34.4054 242.509 34.5201 243.085 34.7492 243.547C34.8638 244.123 35.2076 244.584 35.4368 245.045C35.7806 245.506 36.239 245.968 36.9266 246.198C37.7288 246.659 38.6456 246.775 39.4477 246.659C40.3645 246.544 40.9375 245.968 41.3959 245.161C41.7397 244.469 41.8543 243.547 41.6251 242.739C41.3959 241.817 41.0521 241.01 40.5937 240.088C40.1353 239.281 39.5623 238.474 39.104 237.667C38.531 236.975 38.1872 236.399 37.8434 235.937C37.1558 235.015 36.6974 233.977 36.3536 233.17C36.1244 232.248 36.0098 231.441 36.0098 230.634C36.0098 229.827 36.239 229.02 36.4682 228.328C36.812 227.521 37.0412 226.829 37.4996 226.022L45.7506 230.403Z" fill="white"/>
<path d="M81.2759 238.128L83.9117 252.078L70.8475 254.614L68.2118 240.664L81.2759 238.128ZM85.2868 260.148C85.516 261.07 85.9745 261.762 86.7766 262.339C87.5788 262.915 88.6102 263.376 89.8708 263.722C91.1313 264.183 92.3919 264.529 93.7671 264.875C95.1423 265.221 96.632 265.682 98.0072 266.374C100.872 267.527 103.05 269.256 104.425 271.216C105.8 273.291 106.831 275.597 107.29 278.364C107.863 281.477 107.863 284.359 107.175 286.78C106.487 289.201 105.456 291.276 103.852 293.006C102.362 294.735 100.528 296.119 98.4656 297.156C96.4028 298.194 94.3401 298.886 92.1627 299.347C88.1518 300.154 84.3701 299.923 80.8175 298.54C77.265 297.272 74.5147 294.966 72.3373 291.853L81.1613 282.63C81.6197 282.976 81.9635 283.437 82.5365 283.898C82.9949 284.474 83.5679 284.935 84.2555 285.397C84.9431 285.858 85.6306 286.204 86.4328 286.434C87.235 286.665 88.1518 286.665 89.1832 286.55C90.5584 286.319 91.5898 285.627 92.5065 284.705C93.4233 283.783 93.6525 282.63 93.4233 281.361C93.1941 280.209 92.6211 279.171 91.5897 278.364C90.5583 277.557 89.4124 276.865 88.0372 276.289C86.7766 275.712 85.4014 275.251 84.1409 274.905C82.8803 274.559 81.9635 274.329 81.2759 274.098C79.5569 273.637 78.1818 272.945 77.1504 272.138C76.119 271.331 75.2022 270.524 74.5146 269.487C73.8271 268.564 73.3687 267.527 73.0249 266.374C72.6811 265.221 72.4519 264.068 72.2227 262.915L85.2868 260.148Z" fill="white"/>
<path d="M111.874 227.983C112.217 227.752 112.447 227.291 112.447 226.83C112.447 226.369 112.447 225.792 112.332 225.216C112.217 224.639 112.103 223.948 111.988 223.256C111.874 222.564 111.759 221.872 111.644 221.065C111.53 219.567 111.759 218.298 112.332 217.145C112.905 216.108 113.707 215.07 114.739 214.263C115.999 213.226 117.145 212.649 118.406 212.419C119.552 212.188 120.698 212.188 121.844 212.419C122.875 212.649 123.906 213.226 124.823 213.802C125.74 214.494 126.542 215.185 127.23 216.108C128.49 217.722 129.178 219.451 129.407 221.296C129.636 223.141 129.292 224.87 128.376 226.484L122.417 224.755C122.417 224.524 122.531 224.178 122.646 223.832C122.76 223.486 122.875 223.141 122.875 222.795C122.875 222.449 122.875 221.988 122.875 221.642C122.76 221.181 122.646 220.835 122.302 220.374C121.844 219.797 121.385 219.451 120.812 219.336C120.239 219.221 119.666 219.336 119.093 219.682C118.635 220.028 118.291 220.604 118.176 221.181C118.062 221.872 118.062 222.449 118.062 223.141C118.062 223.832 118.176 224.524 118.291 225.1C118.406 225.677 118.52 226.253 118.635 226.599C118.749 227.406 118.864 228.213 118.749 228.79C118.635 229.481 118.52 230.058 118.176 230.519C117.947 230.98 117.603 231.441 117.145 231.903C116.687 232.248 116.343 232.71 115.885 233.055L111.874 227.983ZM103.279 234.67L108.665 230.404L112.676 235.592L107.29 239.858L103.279 234.67Z" fill="white"/>
<path d="M48.5007 298.194C48.5007 297.618 48.3861 297.156 47.9277 296.695C47.4693 296.234 47.0109 295.773 46.3233 295.427C45.6357 294.966 44.9481 294.505 44.1459 294.159C43.3438 293.698 42.6562 293.237 41.854 292.66C40.3642 291.507 39.3328 290.239 38.8744 288.74C38.416 287.357 38.1868 285.743 38.3014 284.129C38.416 282.169 38.8744 280.555 39.6766 279.171C40.4788 277.903 41.3956 276.865 42.5416 276.058C43.6876 275.251 44.9481 274.79 46.3233 274.444C47.6985 274.098 49.0737 274.098 50.3342 274.098C52.8554 274.329 55.0328 275.021 56.8664 276.404C58.6999 277.788 60.0751 279.517 60.7627 281.708L54.116 285.743C53.8868 285.512 53.7722 285.166 53.543 284.82C53.3138 284.474 53.0846 284.013 52.7408 283.667C52.397 283.322 52.0532 282.976 51.5948 282.745C51.1364 282.515 50.6781 282.284 49.9905 282.284C49.1883 282.169 48.3861 282.399 47.6985 282.86C47.0109 283.322 46.6671 283.898 46.6671 284.705C46.6671 285.397 46.7817 286.089 47.3547 286.78C47.8131 287.472 48.3861 288.048 49.0737 288.51C49.7613 289.086 50.4489 289.547 51.1364 289.893C51.824 290.239 52.397 290.585 52.7408 290.815C53.6576 291.392 54.3452 291.968 54.9182 292.545C55.4912 293.237 55.835 293.813 56.0642 294.505C56.2934 295.196 56.408 295.888 56.408 296.58C56.408 297.272 56.408 298.079 56.408 298.77L48.5007 298.194ZM47.4693 311.798L48.0423 303.151L56.1788 303.728L55.6058 312.375L47.4693 311.798Z" fill="white"/>
<path d="M3.23456 353.418L-8.68368 346.039L-1.80779 334.741L9.99585 342.119L3.23456 353.418ZM-15.445 341.543C-16.2472 341.082 -17.0493 340.966 -18.0807 341.197C-18.9975 341.428 -20.0289 341.889 -21.1749 342.465C-22.3209 343.042 -23.4668 343.733 -24.6128 344.54C-25.8734 345.347 -27.134 346.039 -28.5092 346.616C-31.2595 347.884 -33.8953 348.345 -36.3018 347.999C-38.7084 347.653 -41.115 346.731 -43.4069 345.347C-46.1573 343.618 -48.1055 341.773 -49.3661 339.698C-50.6266 337.623 -51.4288 335.432 -51.658 333.127C-51.8872 330.936 -51.658 328.63 -51.085 326.44C-50.512 324.249 -49.5952 322.174 -48.4492 320.329C-46.2719 316.871 -43.6361 314.219 -40.3128 312.49C-36.9894 310.76 -33.5515 310.184 -29.7697 310.76L-28.9675 323.442C-29.4259 323.558 -30.1135 323.558 -30.8011 323.558C-31.4887 323.558 -32.1763 323.673 -32.9785 323.788C-33.7807 323.903 -34.4683 324.249 -35.1558 324.71C-35.8434 325.172 -36.531 325.748 -36.9894 326.67C-37.677 327.823 -38.0208 329.091 -37.9062 330.36C-37.7916 331.628 -37.2186 332.665 -36.0727 333.357C-35.0413 333.934 -33.8953 334.164 -32.6347 334.049C-31.3741 333.818 -30.1136 333.473 -28.7384 332.896C-27.4778 332.32 -26.2172 331.628 -25.1858 330.936C-24.0398 330.244 -23.2376 329.668 -22.6646 329.322C-21.1749 328.4 -19.7997 327.823 -18.5391 327.593C-17.2785 327.362 -16.018 327.247 -14.872 327.477C-13.726 327.593 -12.6946 327.939 -11.5486 328.515C-10.5173 328.976 -9.48586 329.553 -8.45447 330.244L-15.445 341.543Z" fill="white"/>
</g>
</svg>
