<svg width="312" height="212" viewBox="0 0 312 212" fill="none" xmlns="http://www.w3.org/2000/svg">
<mask id="mask0_1_2808" style="mask-type:alpha" maskUnits="userSpaceOnUse" x="0" y="0" width="312" height="212">
<rect width="312" height="212" rx="15" fill="#1E1E1E"/>
</mask>
<g mask="url(#mask0_1_2808)">
<path fill-rule="evenodd" clip-rule="evenodd" d="M252.197 168.824L228.044 168.824L181.086 168.623C164.926 168.275 153.426 169.725 144.22 160.062C128.123 143.518 108.679 123.711 92.0482 106.74C93.8726 101.259 93.7909 95.3036 91.817 89.8767C89.8431 84.4499 86.0974 79.8826 81.2103 76.9435C76.3233 74.0045 70.5932 72.8731 64.9845 73.7398C59.3758 74.6065 54.2309 77.4184 50.4157 81.7023C46.6005 85.9861 44.3479 91.4803 44.0371 97.2602C43.7262 103.04 45.3761 108.753 48.709 113.437C52.042 118.121 56.8545 121.491 62.3365 122.978C67.8186 124.466 73.6356 123.981 78.8085 121.606C96.4268 139.584 114.431 158.422 131.797 174.803C139.434 181.619 149.801 189.256 168.369 188.056L252.197 188.056L372 188.056L353.12 168.79L252.197 168.824ZM68.6709 112.677C65.948 112.679 63.2858 111.856 61.021 110.314C58.7562 108.771 56.9905 106.578 55.9473 104.011C54.9041 101.445 54.6302 98.6199 55.1603 95.8944C55.6903 93.169 57.0005 90.6651 58.9251 88.6996C60.8498 86.734 63.3024 85.395 65.9728 84.8519C68.6432 84.3088 71.4115 84.586 73.9275 85.6485C76.4435 86.711 78.5942 88.5109 80.1077 90.8208C81.6212 93.1306 82.4294 95.8466 82.4301 98.6252C82.4301 102.35 80.9807 105.922 78.4006 108.556C75.8205 111.19 72.3208 112.671 68.6709 112.673L68.6709 112.677Z" fill="white"/>
<path fill-rule="evenodd" clip-rule="evenodd" d="M305.705 25.7843L288.106 25.7843L253.889 25.9309C242.114 26.1854 233.735 25.126 227.026 32.1844C215.297 44.2683 201.129 58.7364 189.011 71.1328C190.34 75.1364 190.281 79.4862 188.842 83.4502C187.404 87.4141 184.675 90.7502 181.114 92.897C177.553 95.0438 173.377 95.8702 169.291 95.2372C165.204 94.6041 161.455 92.5502 158.675 89.4211C155.895 86.292 154.254 82.2789 154.027 78.057C153.801 73.8351 155.003 69.6623 157.431 66.2409C159.86 62.8194 163.367 60.3582 167.361 59.2715C171.356 58.1848 175.594 58.5388 179.364 60.2741C192.201 47.142 205.32 33.382 217.974 21.4171C223.538 16.4386 231.093 10.8599 244.623 11.7367L305.705 11.7367L393 11.7367L379.243 25.8092L305.705 25.7843ZM171.977 66.796C169.993 66.7949 168.053 67.3957 166.402 68.5224C164.752 69.6491 163.466 71.2512 162.706 73.1259C161.945 75.0006 161.746 77.0639 162.132 79.0546C162.518 81.0454 163.473 82.8743 164.875 84.31C166.278 85.7457 168.065 86.7238 170.011 87.1205C171.956 87.5172 173.974 87.3147 175.807 86.5386C177.64 85.7626 179.207 84.4478 180.31 82.7606C181.413 81.0734 182.002 79.0895 182.002 77.0599C182.002 74.3395 180.946 71.7303 179.066 69.8061C177.186 67.8819 174.636 66.8002 171.977 66.7987L171.977 66.796Z" fill="white"/>
</g>
</svg>
