<svg width="1600" height="697" viewBox="0 0 1600 697" fill="none" xmlns="http://www.w3.org/2000/svg">
<path d="M-46.6481 679.742L1485.05 526.46L1384.88 339.933C1380.41 339.83 1375.89 339.181 1371.36 338.533C1367.38 337.83 1362.86 337.182 1358.33 336.533C1353.75 335.34 1349.78 334.637 1345.75 333.388C1341.17 332.195 1337.14 330.947 1333.05 329.153C1322.62 325.242 1312.08 320.24 1302.54 314.038C1293.04 308.381 1284 301.579 1275.94 293.576C1267.94 286.118 1260.39 277.515 1253.93 268.801C1247.43 259.542 1242.02 250.172 1237.06 239.658C1229.84 223.313 1225.38 206.691 1223.08 189.304C1221.32 171.862 1221.78 154.198 1225.1 137.348C1228.43 120.499 1234.57 103.918 1243.02 88.2063C1251.54 73.0397 1262.42 59.2875 1275.13 47.0047C1275.62 46.4043 1276.67 45.7487 1277.17 45.1484C1278.22 44.4928 1279.33 44.3823 1279.82 43.782C1280.37 43.7268 1281.48 43.6163 1282.58 43.5057C1283.69 43.3953 1284.24 43.34 1285.4 43.7746C1285.95 43.7193 1286.56 44.2092 1287.11 44.1539L1287.72 44.6437C1288.87 45.0783 1289.48 45.5682 1290.09 46.058C1290.7 46.5478 1291.36 47.5827 1291.96 48.0726C1292.63 49.1075 1293.23 49.5973 1293.34 50.6875L1354.96 186.567C1357.11 191.307 1360.31 195.391 1364.01 198.875C1368.26 202.304 1373.06 205.677 1377.69 207.416C1382.88 209.099 1388.01 210.237 1393.59 210.229C1398.61 210.277 1404.08 209.18 1408.88 207.047C1411.53 205.681 1413.63 204.37 1415.73 203.058C1417.83 201.747 1419.87 199.891 1421.92 198.035C1423.96 196.179 1425.4 193.832 1426.84 191.486C1428.27 189.14 1429.71 186.794 1430.59 184.503C1431.48 182.213 1432.31 179.377 1432.59 176.596C1432.87 173.815 1433.14 171.035 1433.48 168.799C1433.2 166.074 1432.93 163.348 1432.71 161.168C1431.88 158.498 1431.06 155.828 1430.29 153.703L1370.1 20.9837C1364.04 -0.432753 1379.72 0.200556 1398.16 0.557662C1404.89 0.984826 1411.07 1.46724 1417.26 1.94965C1423.49 2.97715 1429.73 4.00466 1436.02 5.57723C1442.32 7.14981 1448.66 9.26747 1454.46 11.4404C1464.89 15.3516 1475.43 20.353 1484.98 26.5551C1494.47 32.212 1503.52 39.0144 1511.57 47.0174C1519.57 54.4754 1527.13 63.0787 1533.58 71.7926C1540.09 81.0515 1545.49 90.421 1550.45 100.936C1556.9 115.156 1561.19 130.142 1563.28 145.349C1565.37 160.556 1565.85 176.473 1563.47 191.577C1561.69 207.171 1557.04 221.951 1551.23 236.296C1545.37 250.096 1537.25 263.572 1527.36 276.124L1650.13 509.94L2414 433.497L2415.65 449.849L1660.05 525.464L1638.52 527.619L1509.74 283.943L1507.54 278.658L1504.73 272.883L1508.7 268.08L1512.68 263.278C1521.63 252.472 1528.82 240.742 1533.69 228.142C1539.1 215.487 1542.76 201.908 1544.76 188.495C1546.75 175.081 1546.49 161.344 1544.56 147.772C1542.7 134.746 1538.57 121.395 1532.83 108.755L1531.35 105.05C1527.76 97.1499 1523.13 89.9056 1518.55 83.2063C1512.71 74.9822 1506.42 67.9036 1499.03 60.9355C1492.24 54.4572 1484.41 48.6345 1475.47 42.9222C1467.14 37.6999 1458.31 33.0778 1448.48 29.6564C1443.24 27.4283 1437.5 25.8004 1432.37 24.6624C1426.63 23.0346 1421.49 21.8966 1415.86 21.3589C1410.23 20.8212 1404.6 20.2836 1398.97 19.7459C1397.32 19.9117 1395.6 19.5324 1393.95 19.6981L1450.55 144.517C1452.04 148.222 1453.53 151.927 1454.46 155.688C1455.4 159.448 1455.84 163.809 1456.22 167.624C1456.05 171.495 1455.94 175.911 1455.16 179.292C1454.44 183.218 1453.72 187.144 1451.84 190.635C1450.57 194.617 1448.69 198.108 1446.21 201.11C1444.33 204.601 1441.84 207.603 1438.8 210.66C1436.31 213.662 1433.22 216.173 1429.58 218.74C1425.93 221.307 1422.78 223.274 1419.03 224.751L1415.27 226.228L1414.72 226.283C1408.26 228.581 1402.24 229.734 1395.56 229.852C1387.23 230.136 1379.28 228.729 1371.72 225.632C1364.16 222.534 1357.04 218.292 1351.52 213.338C1345.95 207.839 1340.87 201.74 1337.9 194.33L1333.6 184.85L1281.29 69.5112C1273.23 78.0263 1266.93 87.4658 1261.23 97.3951C1253.66 110.816 1248.46 125.651 1245.52 140.81C1242.59 155.969 1241.91 171.453 1243.45 186.715C1244.93 201.432 1249.22 216.418 1255.67 230.638C1259.92 239.573 1264.71 248.452 1270.5 256.131C1276.35 264.355 1282.64 271.434 1289.98 277.857C1297.31 284.28 1304.65 290.703 1313.53 295.87C1321.87 301.093 1330.7 305.715 1340.52 309.136C1344.55 310.384 1348.03 311.688 1352.06 312.937C1356.08 314.185 1360.06 314.889 1363.48 315.647C1366.9 316.406 1370.88 317.109 1375.4 317.758C1379.38 318.461 1383.3 318.619 1387.22 318.778L1393.4 319.26L1399.58 319.742L1402.39 325.517L1404.6 330.802L1516.51 539.829L1494.43 542.039L1493.32 542.149L-45.0038 696.094L-46.6481 679.742Z" fill="white"/>
</svg>
