<svg width="1600" height="680" viewBox="0 0 1600 680" fill="none" xmlns="http://www.w3.org/2000/svg">
<g>
<path d="M94.2767 679.372H-185.556C-212.118 679.372 -233.724 658.908 -233.724 633.761V117.967C-233.724 92.8181 -212.116 72.3555 -185.556 72.3555H94.2767C120.837 72.3555 142.444 92.8181 142.444 117.967V208.842C142.444 211.722 141.236 214.485 139.085 216.521C136.934 218.558 134.017 219.702 130.975 219.702C129.469 219.702 127.978 219.421 126.586 218.875C125.195 218.33 123.931 217.53 122.866 216.521C120.715 214.485 119.506 211.722 119.506 208.842V117.967C119.506 104.791 108.183 94.0744 94.2767 94.0744H-185.556C-199.467 94.0744 -210.787 104.797 -210.787 117.967V633.761C-210.787 646.937 -199.464 657.653 -185.556 657.653H94.2767C108.186 657.653 119.506 646.931 119.506 633.761V550.208C119.506 547.327 120.715 544.565 122.866 542.528C125.017 540.492 127.934 539.347 130.975 539.347C134.017 539.347 136.934 540.492 139.085 542.528C141.236 544.565 142.444 547.327 142.444 550.208V633.761C142.444 658.908 120.837 679.372 94.2767 679.372Z" fill="white"/>
<path d="M79.3672 594.148H-170.649C-176.122 594.142 -181.369 592.08 -185.239 588.415C-189.109 584.75 -191.285 579.782 -191.292 574.599V177.127C-191.284 171.945 -189.107 166.977 -185.238 163.312C-181.368 159.648 -176.121 157.586 -170.649 157.58H79.3672C84.84 157.586 90.0867 159.647 93.9565 163.312C97.8264 166.976 100.003 171.945 100.01 177.127V208.842C100.01 210.268 99.7138 211.68 99.1377 212.998C98.5615 214.315 97.7168 215.513 96.652 216.521C95.5871 217.53 94.3229 218.33 92.9315 218.875C91.5401 219.421 90.0488 219.702 88.5428 219.702C85.501 219.702 82.5838 218.558 80.433 216.521C78.2821 214.485 77.0738 211.722 77.0738 208.842V179.294H-168.355V572.427H77.0738V550.208C77.0738 547.327 78.2821 544.565 80.433 542.528C82.5838 540.492 85.501 539.347 88.5428 539.347C90.0488 539.347 91.5401 539.628 92.9315 540.174C94.3229 540.72 95.5871 541.52 96.652 542.528C97.7168 543.537 98.5615 544.734 99.1377 546.052C99.7138 547.369 100.01 548.781 100.01 550.208V574.599C100.004 579.782 97.8276 584.751 93.9576 588.416C90.0876 592.081 84.8404 594.142 79.3672 594.148Z" fill="white"/>
<path d="M93.9866 514.416C13.3031 514.416 -52.3369 452.26 -52.3369 375.867C-52.3369 299.473 13.3065 237.306 93.9866 237.306C174.667 237.306 240.305 299.462 240.305 375.864C240.305 452.265 174.668 514.416 93.9866 514.416ZM93.9866 259.03C25.9501 259.03 -29.4006 311.446 -29.4006 375.867C-29.4006 440.287 25.9501 492.696 93.9866 492.696C162.023 492.696 217.364 440.289 217.364 375.867C217.364 311.444 162.021 259.027 93.9866 259.027V259.03Z" fill="white"/>
<path d="M28.937 554.806C27.5909 554.806 26.2551 554.582 24.9907 554.145C-53.6445 526.852 -106.477 455.21 -106.477 375.861C-106.477 297.509 -56.7881 228.216 20.1114 199.337C22.94 198.281 26.0954 198.329 28.8865 199.472C31.6776 200.614 33.8769 202.757 35.0028 205.432C36.1229 208.109 36.0744 211.099 34.8679 213.743C33.6614 216.387 31.3957 218.47 28.5686 219.533C-39.5339 245.112 -83.5372 306.471 -83.5372 375.864C-83.5372 446.131 -36.7486 509.577 32.8868 533.749C35.7432 534.742 38.0666 536.767 39.3463 539.381C40.6261 541.995 40.7574 544.983 39.7114 547.689C38.9007 549.777 37.4329 551.579 35.5061 552.851C33.5792 554.124 31.2863 554.806 28.937 554.806Z" fill="white"/>
<path d="M126.605 468.579H61.3761C59.87 468.58 58.3787 468.299 56.9872 467.753C55.5957 467.208 54.3314 466.408 53.2664 465.4C52.2014 464.391 51.3565 463.194 50.7801 461.877C50.2037 460.559 49.9071 459.147 49.9071 457.721V417.607H7.53637C6.03024 417.607 4.53887 417.326 3.14738 416.78C1.7559 416.234 0.491567 415.435 -0.573427 414.426C-1.63842 413.418 -2.48322 412.22 -3.05959 410.903C-3.63596 409.585 -3.93262 408.173 -3.93262 406.747V344.981C-3.93262 342.101 -2.72428 339.338 -0.573427 337.302C1.57743 335.265 4.49461 334.121 7.53637 334.121H49.9071V293.999C49.9071 292.573 50.2037 291.16 50.7801 289.843C51.3565 288.525 52.2013 287.328 53.2663 286.32C54.3313 285.311 55.5956 284.511 56.9871 283.965C58.3786 283.42 59.8699 283.139 61.3761 283.139H126.605C129.647 283.139 132.564 284.283 134.714 286.32C136.865 288.357 138.073 291.119 138.073 293.999V334.121H180.438C181.944 334.121 183.436 334.401 184.828 334.947C186.219 335.493 187.484 336.293 188.549 337.301C189.614 338.31 190.458 339.507 191.035 340.825C191.611 342.143 191.907 343.555 191.907 344.981V406.747C191.907 408.173 191.611 409.585 191.035 410.903C190.458 412.221 189.614 413.418 188.549 414.427C187.484 415.435 186.219 416.235 184.828 416.781C183.436 417.326 181.944 417.607 180.438 417.607H138.068V457.721C138.068 460.6 136.86 463.361 134.711 465.397C132.561 467.434 129.646 468.578 126.605 468.579ZM72.8501 446.861H115.136V406.747C115.136 405.32 115.433 403.908 116.009 402.59C116.585 401.273 117.43 400.075 118.495 399.067C119.56 398.058 120.824 397.258 122.216 396.713C123.608 396.167 125.099 395.886 126.605 395.886H168.969V355.841H126.605C125.099 355.842 123.608 355.561 122.216 355.015C120.824 354.469 119.56 353.669 118.495 352.661C117.43 351.652 116.585 350.455 116.009 349.137C115.433 347.82 115.136 346.407 115.136 344.981V304.859H72.8501V344.981C72.8501 347.861 71.6418 350.624 69.491 352.66C67.3401 354.697 64.4229 355.841 61.3811 355.841H19.0104V395.886H61.3811C64.4229 395.886 67.3401 397.031 69.491 399.067C71.6418 401.104 72.8501 403.866 72.8501 406.747V446.861Z" fill="white"/>
<path d="M1552.68 679.372H1282.02C1260.52 679.372 1243.02 662.811 1243.02 642.45V556.347C1243.02 553.466 1244.23 550.704 1246.38 548.667C1248.53 546.631 1251.45 545.487 1254.49 545.487C1257.53 545.487 1260.45 546.631 1262.6 548.667C1264.75 550.704 1265.96 553.466 1265.96 556.347V642.448C1265.97 646.479 1267.66 650.343 1270.67 653.194C1273.68 656.044 1277.76 657.647 1282.02 657.652H1552.68C1556.93 657.647 1561.01 656.044 1564.02 653.194C1567.03 650.343 1568.73 646.479 1568.73 642.448V126.961C1568.73 122.93 1567.03 119.066 1564.02 116.216C1561.01 113.366 1556.93 111.762 1552.68 111.757H1282.02C1277.76 111.762 1273.68 113.366 1270.67 116.216C1267.66 119.066 1265.97 122.93 1265.96 126.961V195.015C1265.96 197.895 1264.75 200.657 1262.6 202.694C1260.45 204.731 1257.53 205.875 1254.49 205.875C1251.45 205.875 1248.53 204.731 1246.38 202.694C1244.23 200.657 1243.02 197.895 1243.02 195.015V126.961C1243.02 106.599 1260.52 90.0383 1282.02 90.0383H1552.68C1574.18 90.0383 1591.67 106.599 1591.67 126.961V642.448C1591.67 662.811 1574.17 679.372 1552.68 679.372Z" fill="white"/>
<path d="M1580.64 610.106H1254.93C1251.89 610.106 1248.97 608.961 1246.82 606.925C1244.67 604.888 1243.46 602.126 1243.46 599.245V488.076C1243.46 485.195 1244.67 482.433 1246.82 480.396C1248.97 478.36 1251.89 477.215 1254.93 477.215C1257.97 477.215 1260.89 478.36 1263.04 480.396C1265.19 482.433 1266.4 485.195 1266.4 488.076V588.385H1569.17V180.417H1266.4V222.084C1266.4 224.964 1265.19 227.726 1263.04 229.763C1260.89 231.8 1257.97 232.944 1254.93 232.944C1251.89 232.944 1248.97 231.8 1246.82 229.763C1244.67 227.726 1243.46 224.964 1243.46 222.084V169.557C1243.46 168.131 1243.76 166.719 1244.33 165.401C1244.91 164.084 1245.76 162.887 1246.82 161.878C1247.89 160.87 1249.15 160.07 1250.54 159.525C1251.93 158.979 1253.42 158.698 1254.93 158.698H1580.64C1582.15 158.698 1583.64 158.979 1585.03 159.525C1586.42 160.07 1587.68 160.87 1588.75 161.878C1589.81 162.887 1590.66 164.084 1591.23 165.401C1591.81 166.719 1592.11 168.131 1592.11 169.557V599.25C1592.11 602.13 1590.9 604.891 1588.75 606.926C1586.6 608.962 1583.68 610.106 1580.64 610.106Z" fill="white"/>
<path d="M1765.61 679.372H1225.44C1223.92 679.39 1222.42 679.122 1221.01 678.584C1219.6 678.046 1218.32 677.249 1217.24 676.239C1216.16 675.229 1215.3 674.026 1214.72 672.699C1214.13 671.373 1213.83 669.95 1213.83 668.513C1213.83 667.076 1214.13 665.653 1214.72 664.326C1215.3 663 1216.16 661.797 1217.24 660.787C1218.32 659.777 1219.6 658.98 1221.01 658.442C1222.42 657.904 1223.92 657.636 1225.44 657.653H1765.61C1767.13 657.636 1768.64 657.904 1770.04 658.442C1771.45 658.98 1772.73 659.777 1773.81 660.787C1774.89 661.797 1775.75 663 1776.33 664.326C1776.92 665.653 1777.22 667.076 1777.22 668.513C1777.22 669.95 1776.92 671.373 1776.33 672.699C1775.75 674.026 1774.89 675.229 1773.81 676.239C1772.73 677.249 1771.45 678.046 1770.04 678.584C1768.64 679.122 1767.13 679.39 1765.61 679.372Z" fill="white"/>
<path d="M1367.94 388.42C1365.67 388.42 1363.45 387.784 1361.57 386.591C1359.68 385.398 1358.21 383.702 1357.34 381.718C1356.47 379.734 1356.25 377.55 1356.69 375.444C1357.13 373.337 1358.22 371.402 1359.83 369.883L1473.08 262.641C1475.23 260.603 1478.15 259.459 1481.19 259.459C1484.23 259.459 1487.15 260.603 1489.3 262.641C1491.45 264.678 1492.66 267.441 1492.66 270.323C1492.66 273.204 1491.45 275.967 1489.3 278.004L1376.05 385.245C1374.98 386.254 1373.72 387.054 1372.33 387.599C1370.94 388.144 1369.44 388.423 1367.94 388.42Z" fill="white"/>
<path d="M1377.4 514.667C1375.13 514.668 1372.91 514.031 1371.03 512.838C1369.14 511.645 1367.67 509.949 1366.8 507.964C1365.93 505.98 1365.71 503.796 1366.15 501.69C1366.59 499.583 1367.68 497.647 1369.29 496.128L1482.54 388.888C1484.69 386.851 1487.61 385.708 1490.65 385.708C1493.69 385.709 1496.61 386.854 1498.76 388.892C1500.91 390.929 1502.12 393.692 1502.12 396.572C1502.12 399.453 1500.91 402.215 1498.76 404.251L1385.51 511.494C1384.44 512.502 1383.18 513.301 1381.79 513.846C1380.4 514.39 1378.9 514.669 1377.4 514.667Z" fill="white"/>
<path d="M994.017 520.479C889.481 520.479 804.438 439.945 804.438 340.959C804.438 241.973 889.481 161.449 994.017 161.449C1098.55 161.449 1183.59 241.973 1183.59 340.959C1183.59 439.945 1098.55 520.479 994.017 520.479ZM994.017 183.168C902.133 183.168 827.373 253.952 827.373 340.959C827.373 427.966 902.129 498.758 994.017 498.758C1085.9 498.758 1160.66 427.973 1160.66 340.959C1160.66 253.946 1085.9 183.168 994.017 183.168Z" fill="white"/>
<path d="M713.171 679.372C692.729 679.372 673.509 671.831 659.052 658.146C629.217 629.893 629.217 583.917 659.052 555.663L761.705 458.458C736.273 413.327 726 360.889 732.734 309.831C733.518 303.883 739.263 299.624 745.535 300.405C747.029 300.582 748.472 301.035 749.782 301.74C751.091 302.445 752.241 303.387 753.166 304.513C754.091 305.639 754.772 306.926 755.172 308.301C755.571 309.677 755.68 311.113 755.493 312.528C749.011 361.695 759.794 412.261 785.862 454.904C787.129 456.975 787.637 459.385 787.308 461.758C786.979 464.132 785.832 466.335 784.043 468.027L675.27 571.025C654.381 590.811 654.381 623.009 675.27 642.795C696.16 662.581 730.167 662.571 751.066 642.795L859.838 539.795C861.624 538.102 863.951 537.014 866.458 536.703C868.964 536.392 871.509 536.873 873.696 538.073C967.727 589.624 1087.11 574.767 1164.01 501.948C1212.29 456.234 1237.82 392.961 1234.06 328.358C1230.25 262.876 1198.1 204.021 1143.53 162.634C1064.32 102.564 949.411 97.0671 864.08 149.262C861.525 150.825 858.419 151.363 855.445 150.757C852.471 150.152 849.874 148.452 848.223 146.033C846.573 143.613 846.005 140.672 846.645 137.856C847.284 135.041 849.079 132.581 851.634 131.018C945.144 73.8261 1071.08 79.858 1157.87 145.679C1217.59 190.97 1252.79 255.424 1256.96 327.164C1261.08 397.908 1233.11 467.224 1180.23 517.297C1098.09 595.076 971.69 612.5 869.929 560.941L767.278 658.146C752.827 671.831 733.608 679.372 713.171 679.372Z" fill="white"/>
<path d="M821.943 514.76C820.436 514.762 818.943 514.482 817.551 513.936C816.159 513.39 814.894 512.589 813.83 511.579L767.828 468.021C766.762 467.012 765.917 465.815 765.341 464.497C764.764 463.178 764.467 461.766 764.467 460.339C764.467 458.913 764.764 457.5 765.341 456.182C765.917 454.864 766.762 453.666 767.828 452.657C768.893 451.648 770.158 450.848 771.55 450.302C772.942 449.756 774.433 449.475 775.94 449.475C777.447 449.475 778.938 449.756 780.33 450.302C781.722 450.848 782.987 451.648 784.052 452.657L830.062 496.217C831.665 497.736 832.757 499.671 833.199 501.777C833.641 503.884 833.413 506.067 832.545 508.051C831.677 510.035 830.207 511.731 828.321 512.924C826.435 514.117 824.217 514.754 821.949 514.754L821.943 514.76Z" fill="white"/>
<path d="M1050.13 340.963C1050.13 324.515 1064.21 311.181 1081.58 311.181C1098.95 311.181 1113.03 324.515 1113.03 340.963C1113.03 357.41 1098.95 370.746 1081.58 370.746C1064.2 370.746 1050.13 357.418 1050.13 340.963Z" fill="white"/>
<path d="M933.554 298.859C950.924 298.859 965.006 285.525 965.006 269.076C965.006 252.627 950.924 239.292 933.554 239.292C916.183 239.292 902.101 252.627 902.101 269.076C902.101 285.525 916.183 298.859 933.554 298.859Z" fill="white"/>
<path d="M953.163 450.101C970.534 450.101 984.616 436.767 984.616 420.318C984.616 403.869 970.534 390.535 953.163 390.535C935.793 390.535 921.711 403.869 921.711 420.318C921.711 436.767 935.793 450.101 953.163 450.101Z" fill="white"/>
<path d="M1050.13 351.816H879.881C878.364 351.834 876.857 351.566 875.45 351.028C874.042 350.49 872.761 349.693 871.682 348.683C870.602 347.672 869.745 346.469 869.16 345.143C868.574 343.817 868.273 342.394 868.273 340.957C868.273 339.519 868.574 338.096 869.16 336.77C869.745 335.444 870.602 334.241 871.682 333.231C872.761 332.221 874.042 331.424 875.45 330.886C876.857 330.348 878.364 330.08 879.881 330.097H1050.13C1053.15 330.132 1056.03 331.291 1058.15 333.324C1060.27 335.357 1061.46 338.099 1061.46 340.957C1061.46 343.814 1060.27 346.557 1058.15 348.589C1056.03 350.622 1053.15 351.781 1050.13 351.816Z" fill="white"/>
<path d="M1055.55 279.933H965.005C961.963 279.933 959.046 278.789 956.895 276.752C954.744 274.715 953.536 271.953 953.536 269.073C953.536 266.192 954.744 263.43 956.895 261.393C959.046 259.357 961.963 258.212 965.005 258.212H1055.55C1058.6 258.212 1061.51 259.357 1063.66 261.393C1065.81 263.43 1067.02 266.192 1067.02 269.073C1067.02 271.953 1065.81 274.715 1063.66 276.752C1061.51 278.789 1058.6 279.933 1055.55 279.933Z" fill="white"/>
<path d="M1058.49 431.182H961.561C958.519 431.182 955.602 430.038 953.452 428.001C951.301 425.964 950.092 423.202 950.092 420.322C950.092 417.441 951.301 414.679 953.452 412.642C955.602 410.605 958.519 409.461 961.561 409.461H1058.49C1061.53 409.461 1064.45 410.605 1066.6 412.642C1068.75 414.679 1069.96 417.441 1069.96 420.322C1069.96 423.202 1068.75 425.964 1066.6 428.001C1064.45 430.038 1061.53 431.182 1058.49 431.182Z" fill="white"/>
<path d="M1135.47 679.372H624.271C622.753 679.39 621.247 679.122 619.839 678.584C618.432 678.046 617.151 677.249 616.071 676.239C614.991 675.229 614.134 674.026 613.549 672.699C612.964 671.373 612.663 669.95 612.663 668.513C612.663 667.076 612.964 665.653 613.549 664.326C614.134 663 614.991 661.797 616.071 660.787C617.151 659.777 618.432 658.98 619.839 658.442C621.247 657.904 622.753 657.636 624.271 657.653H1135.47C1136.99 657.636 1138.49 657.904 1139.9 658.442C1141.31 658.98 1142.59 659.777 1143.67 660.787C1144.75 661.797 1145.61 663 1146.19 664.326C1146.78 665.653 1147.08 667.076 1147.08 668.513C1147.08 669.95 1146.78 671.373 1146.19 672.699C1145.61 674.026 1144.75 675.229 1143.67 676.239C1142.59 677.249 1141.31 678.046 1139.9 678.584C1138.49 679.122 1136.99 679.39 1135.47 679.372Z" fill="white"/>
<path d="M647.155 435.807H583.225C567.903 435.807 555.435 423.996 555.435 409.488V388.379C555.435 386.953 555.731 385.54 556.308 384.223C556.884 382.905 557.729 381.708 558.794 380.699C559.859 379.691 561.123 378.891 562.515 378.345C563.906 377.799 565.398 377.519 566.904 377.519H663.478C664.984 377.519 666.475 377.799 667.867 378.345C669.258 378.891 670.523 379.691 671.588 380.699C672.653 381.708 673.498 382.905 674.074 384.223C674.65 385.54 674.947 386.953 674.947 388.379V409.488C674.947 423.994 662.479 435.807 647.155 435.807ZM578.368 399.238V409.488C578.369 410.707 578.88 411.875 579.79 412.737C580.699 413.599 581.933 414.084 583.22 414.086H647.155C648.442 414.085 649.677 413.601 650.587 412.739C651.498 411.876 652.009 410.707 652.01 409.488V399.238H578.368Z" fill="white"/>
<path d="M518.959 598.874C459.574 598.874 411.257 553.127 411.257 496.892V230.604C411.257 200.017 384.978 175.134 352.678 175.134C320.379 175.134 294.103 200.017 294.103 230.604V524.907C294.103 527.787 292.895 530.55 290.744 532.586C288.593 534.623 285.676 535.767 282.634 535.767C279.592 535.767 276.675 534.623 274.524 532.586C272.373 530.55 271.165 527.787 271.165 524.907V230.604C271.165 188.034 307.73 153.414 352.678 153.414C397.627 153.414 434.202 188.038 434.202 230.604V496.892C434.202 541.143 472.229 577.152 518.959 577.152C565.688 577.152 603.719 541.143 603.719 496.892V424.954C603.7 423.517 603.983 422.091 604.551 420.758C605.119 419.425 605.961 418.212 607.028 417.19C608.095 416.167 609.365 415.356 610.766 414.802C612.166 414.247 613.669 413.962 615.187 413.962C616.705 413.962 618.207 414.247 619.608 414.802C621.008 415.356 622.279 416.167 623.346 417.19C624.412 418.212 625.254 419.425 625.822 420.758C626.39 422.091 626.673 423.517 626.655 424.954V496.892C626.657 553.127 578.345 598.874 518.959 598.874Z" fill="white"/>
<path d="M300.482 679.372H264.782C263.276 679.373 261.785 679.092 260.393 678.546C259.002 678.001 257.738 677.201 256.673 676.192C255.608 675.184 254.763 673.987 254.186 672.669C253.61 671.352 253.313 669.94 253.313 668.514V630.359C253.313 628.933 253.61 627.52 254.186 626.203C254.763 624.885 255.608 623.688 256.673 622.68C257.738 621.672 259.002 620.872 260.393 620.326C261.785 619.781 263.276 619.5 264.782 619.5H300.482C301.988 619.5 303.48 619.78 304.871 620.326C306.263 620.871 307.527 621.671 308.592 622.679C309.657 623.688 310.502 624.885 311.079 626.203C311.655 627.52 311.951 628.933 311.951 630.359V668.514C311.951 669.94 311.655 671.352 311.079 672.67C310.502 673.987 309.657 675.185 308.592 676.193C307.527 677.201 306.263 678.001 304.871 678.547C303.48 679.092 301.988 679.373 300.482 679.372ZM276.251 657.652H289.023V641.219H276.251V657.652Z" fill="white"/>
<path d="M685.237 399.238H554.663C530.338 399.238 510.552 380.513 510.552 357.467V185.468C510.552 131.575 556.861 87.729 613.77 87.729H685.239C686.745 87.7288 688.236 88.0095 689.628 88.5551C691.019 89.1007 692.283 89.9005 693.348 90.9089C694.413 91.9172 695.258 93.1143 695.835 94.4319C696.411 95.7494 696.708 97.1616 696.708 98.5877V388.379C696.708 389.805 696.411 391.218 695.834 392.535C695.258 393.853 694.413 395.05 693.348 396.058C692.283 397.067 691.018 397.867 689.626 398.412C688.235 398.958 686.743 399.238 685.237 399.238ZM613.768 109.448C569.502 109.448 533.488 143.546 533.488 185.467V357.471C533.488 368.525 542.99 377.519 554.663 377.519H673.768V109.453L613.768 109.448Z" fill="white"/>
<path d="M737.262 263.039H685.237C683.731 263.039 682.24 262.758 680.848 262.213C679.457 261.667 678.192 260.867 677.127 259.859C676.062 258.85 675.217 257.653 674.641 256.335C674.065 255.017 673.768 253.605 673.768 252.179V129.505C673.768 128.079 674.065 126.667 674.641 125.349C675.217 124.031 676.062 122.834 677.127 121.825C678.192 120.817 679.457 120.017 680.848 119.471C682.24 118.926 683.731 118.645 685.237 118.645H737.262C740.303 118.645 743.22 119.79 745.371 121.826C747.521 123.863 748.729 126.625 748.729 129.505V252.179C748.729 255.059 747.521 257.821 745.371 259.858C743.22 261.894 740.303 263.039 737.262 263.039ZM696.7 241.32H725.786V140.364H696.7V241.32Z" fill="white"/>
<path d="M804.932 170.144H737.263C735.745 170.162 734.239 169.894 732.831 169.356C731.424 168.818 730.143 168.021 729.063 167.011C727.983 166.001 727.126 164.797 726.541 163.471C725.956 162.145 725.655 160.722 725.655 159.285C725.655 157.848 725.956 156.425 726.541 155.098C727.126 153.772 727.983 152.569 729.063 151.559C730.143 150.549 731.424 149.752 732.831 149.214C734.239 148.676 735.745 148.408 737.263 148.425H804.932C806.45 148.408 807.956 148.676 809.364 149.214C810.772 149.752 812.052 150.549 813.132 151.559C814.212 152.569 815.069 153.772 815.654 155.098C816.239 156.425 816.541 157.848 816.541 159.285C816.541 160.722 816.239 162.145 815.654 163.471C815.069 164.797 814.212 166.001 813.132 167.011C812.052 168.021 810.772 168.818 809.364 169.356C807.956 169.894 806.45 170.162 804.932 170.144Z" fill="white"/>
<path d="M804.932 233.259H737.263C735.745 233.276 734.239 233.008 732.831 232.471C731.424 231.933 730.143 231.136 729.063 230.125C727.983 229.115 727.126 227.912 726.541 226.586C725.956 225.26 725.655 223.837 725.655 222.4C725.655 220.962 725.956 219.539 726.541 218.213C727.126 216.887 727.983 215.684 729.063 214.674C730.143 213.664 731.424 212.866 732.831 212.329C734.239 211.791 735.745 211.523 737.263 211.54H804.932C806.45 211.523 807.956 211.791 809.364 212.329C810.772 212.866 812.052 213.664 813.132 214.674C814.212 215.684 815.069 216.887 815.654 218.213C816.239 219.539 816.541 220.962 816.541 222.4C816.541 223.837 816.239 225.26 815.654 226.586C815.069 227.912 814.212 229.115 813.132 230.125C812.052 231.136 810.772 231.933 809.364 232.471C807.956 233.008 806.45 233.276 804.932 233.259Z" fill="white"/>
<path d="M626.704 301.143C623.662 301.143 620.745 299.999 618.594 297.962C616.443 295.926 615.235 293.163 615.235 290.283V98.5878C615.235 95.7075 616.443 92.9451 618.594 90.9084C620.745 88.8717 623.662 87.7275 626.704 87.7275C629.746 87.7275 632.663 88.8717 634.814 90.9084C636.965 92.9451 638.173 95.7075 638.173 98.5878V290.283C638.173 293.163 636.965 295.926 634.814 297.962C632.663 299.999 629.746 301.143 626.704 301.143Z" fill="white"/>
<path d="M308.901 641.219H256.364C253.322 641.219 250.405 640.075 248.254 638.038C246.103 636.001 244.895 633.239 244.895 630.359V541.97C244.895 527.461 257.363 515.66 272.685 515.66H292.581C307.902 515.66 320.37 527.461 320.37 541.97V630.359C320.37 633.239 319.161 636.001 317.01 638.038C314.86 640.075 311.942 641.219 308.901 641.219ZM267.831 619.5H297.432V541.97C297.429 540.753 296.917 539.587 296.008 538.727C295.099 537.866 293.866 537.382 292.581 537.38H272.685C271.4 537.382 270.167 537.866 269.257 538.726C268.348 539.586 267.836 540.753 267.833 541.97L267.831 619.5Z" fill="white"/>
<path d="M1779.37 679.372H-247.775C-249.281 679.373 -250.772 679.092 -252.164 678.546C-253.555 678.001 -254.82 677.201 -255.885 676.193C-256.95 675.184 -257.794 673.987 -258.371 672.67C-258.947 671.352 -259.244 669.94 -259.244 668.514C-259.244 665.633 -258.036 662.871 -255.885 660.834C-253.734 658.798 -250.817 657.653 -247.775 657.653H1779.37C1780.89 657.636 1782.4 657.904 1783.81 658.442C1785.21 658.98 1786.49 659.777 1787.57 660.787C1788.65 661.797 1789.51 663 1790.1 664.326C1790.68 665.653 1790.98 667.076 1790.98 668.513C1790.98 669.95 1790.68 671.373 1790.1 672.699C1789.51 674.026 1788.65 675.229 1787.57 676.239C1786.49 677.249 1785.21 678.046 1783.81 678.584C1782.4 679.122 1780.89 679.39 1779.37 679.372Z" fill="white"/>
<path d="M214.4 199.939C190.739 199.939 171.472 181.707 171.472 159.289C171.472 136.871 190.734 118.639 214.4 118.639C238.067 118.639 257.329 136.871 257.329 159.278C257.329 181.685 238.068 199.939 214.4 199.939ZM214.4 140.371C210.447 140.371 206.583 141.481 203.296 143.561C200.01 145.64 197.448 148.596 195.936 152.055C194.423 155.513 194.028 159.319 194.799 162.99C195.571 166.661 197.475 170.033 200.271 172.679C203.067 175.326 206.628 177.128 210.506 177.857C214.383 178.587 218.401 178.211 222.053 176.778C225.705 175.344 228.826 172.918 231.021 169.805C233.216 166.692 234.387 163.032 234.386 159.289C234.381 154.271 232.274 149.46 228.527 145.912C224.78 142.364 219.699 140.369 214.4 140.364V140.371Z" fill="white"/>
<path d="M344.81 119.146C316.444 119.146 293.367 97.2993 293.367 70.4383C293.367 43.5773 316.444 21.7207 344.81 21.7207C373.177 21.7207 396.259 43.5805 396.259 70.4383C396.259 97.2962 373.177 119.146 344.81 119.146ZM344.81 43.4397C329.092 43.4397 316.304 55.5466 316.304 70.4383C316.304 85.33 329.091 97.4258 344.81 97.4258C360.53 97.4258 373.321 85.3188 373.321 70.4383C373.321 55.5579 360.53 43.4397 344.81 43.4397Z" fill="white"/>
<path d="M464.086 139.626C445.833 139.626 430.992 125.568 430.992 108.285C430.992 91.0027 445.839 76.9529 464.086 76.9529C482.332 76.9529 497.183 91.0107 497.183 108.285C497.183 125.56 482.337 139.626 464.086 139.626ZM464.086 98.6734C462.077 98.6744 460.114 99.2393 458.444 100.297C456.775 101.354 455.474 102.857 454.706 104.614C453.938 106.372 453.738 108.306 454.131 110.171C454.524 112.036 455.492 113.749 456.913 115.094C458.334 116.438 460.144 117.353 462.114 117.723C464.085 118.093 466.126 117.902 467.982 117.173C469.837 116.444 471.423 115.211 472.538 113.629C473.653 112.047 474.247 110.187 474.246 108.285C474.243 105.736 473.171 103.291 471.266 101.489C469.361 99.6869 466.778 98.6743 464.086 98.6734Z" fill="white"/>
<path d="M681.662 77.2589C661.063 77.2589 644.311 61.3926 644.311 41.8902C644.311 22.3878 661.065 6.52148 681.662 6.52148C702.259 6.52148 719.013 22.3878 719.013 41.8902C719.013 61.3926 702.261 77.2589 681.662 77.2589ZM681.662 28.2356C678.811 28.2366 676.024 29.038 673.654 30.5386C671.284 32.0392 669.437 34.1716 668.346 36.6662C667.256 39.1607 666.971 41.9054 667.528 44.5532C668.085 47.201 669.458 49.633 671.475 51.5417C673.491 53.4504 676.06 54.75 678.856 55.2764C681.653 55.8027 684.551 55.5321 687.185 54.4987C689.819 53.4654 692.07 51.7156 693.654 49.4708C695.238 47.2259 696.083 44.5868 696.083 41.887C696.078 38.2671 694.557 34.7971 691.853 32.2379C689.15 29.6788 685.484 28.2394 681.662 28.2356Z" fill="white"/>
<path d="M826.66 102.236C804.075 102.236 785.7 84.8352 785.7 63.4555C785.7 42.0759 804.075 24.6636 826.66 24.6636C849.245 24.6636 867.62 42.0647 867.62 63.4555C867.62 84.8464 849.243 102.236 826.66 102.236ZM826.66 46.3825C823.095 46.3822 819.611 47.3828 816.647 49.2577C813.683 51.1326 811.372 53.7976 810.008 56.9158C808.643 60.034 808.286 63.4653 808.981 66.7759C809.675 70.0865 811.391 73.1276 813.911 75.5148C816.431 77.9019 819.642 79.5279 823.138 80.1871C826.634 80.8463 830.258 80.5091 833.551 79.2181C836.845 77.9272 839.66 75.7405 841.641 72.9345C843.622 70.1285 844.68 66.8292 844.681 63.4539C844.676 58.9293 842.775 54.5914 839.397 51.3915C836.019 48.1917 831.438 46.3909 826.66 46.3841V46.3825Z" fill="white"/>
<path d="M1006.06 79.429C986.186 79.429 970.018 64.1149 970.018 45.2958C970.018 26.4768 986.189 11.1738 1006.06 11.1738C1025.94 11.1738 1042.1 26.48 1042.1 45.2974C1042.1 64.1149 1025.94 79.429 1006.06 79.429ZM1006.06 32.8928C1003.47 32.8931 1000.94 33.6212 998.783 34.985C996.628 36.3488 994.949 38.287 993.958 40.5546C992.966 42.8221 992.707 45.3171 993.214 47.724C993.72 50.131 994.968 52.3417 996.802 54.0766C998.635 55.8115 1000.97 56.9927 1003.51 57.4708C1006.05 57.9489 1008.69 57.7024 1011.08 56.7625C1013.48 55.8226 1015.52 54.2315 1016.96 52.1904C1018.4 50.1494 1019.17 47.75 1019.17 45.2958C1019.16 42.0072 1017.78 38.8551 1015.32 36.5304C1012.87 34.2057 1009.54 32.8982 1006.06 32.8944V32.8928Z" fill="white"/>
<path d="M1188.9 121.318C1160.08 121.318 1136.64 99.1139 1136.64 71.8288C1136.64 44.5437 1160.08 22.3398 1188.9 22.3398C1217.72 22.3398 1241.17 44.5405 1241.17 71.8288C1241.17 99.1171 1217.72 121.318 1188.9 121.318ZM1188.9 44.0588C1172.73 44.0588 1159.58 56.5146 1159.58 71.8288C1159.58 87.143 1172.73 99.594 1188.9 99.594C1205.07 99.594 1218.24 87.143 1218.24 71.8288C1218.24 56.5146 1205.07 44.0604 1188.9 44.0604V44.0588Z" fill="white"/>
<path d="M1389.45 83.1549C1365.23 83.1549 1345.54 64.5071 1345.54 41.5814C1345.54 18.6558 1365.23 0 1389.45 0C1413.66 0 1433.35 18.6574 1433.35 41.5814C1433.35 64.5055 1413.65 83.1549 1389.45 83.1549ZM1389.45 21.7205C1383.88 21.7265 1378.55 23.821 1374.62 27.5444C1370.69 31.2679 1368.48 36.3161 1368.47 41.5814C1368.47 52.5265 1377.88 61.4263 1389.45 61.4263C1394.97 61.3793 1400.26 59.2666 1404.15 55.5478C1408.04 51.829 1410.23 46.8051 1410.23 41.5694C1410.23 36.3337 1408.04 31.3099 1404.15 27.5911C1400.26 23.8723 1394.97 21.7595 1389.45 21.7125V21.7205Z" fill="white"/>
<path d="M1635.69 84.0891C1612.02 84.0891 1592.76 65.8542 1592.76 43.4391C1592.76 21.024 1612.02 2.78906 1635.69 2.78906C1659.37 2.78906 1678.62 21.0224 1678.62 43.4391C1678.62 65.8558 1659.35 84.0891 1635.69 84.0891ZM1635.69 24.5112C1631.74 24.5103 1627.87 25.6197 1624.59 27.6992C1621.3 29.7787 1618.73 32.7348 1617.22 36.1937C1615.71 39.6526 1615.31 43.459 1616.08 47.1313C1616.85 50.8036 1618.76 54.177 1621.55 56.8247C1624.35 59.4725 1627.91 61.2757 1631.79 62.0063C1635.66 62.7369 1639.68 62.3621 1643.34 60.9292C1646.99 59.4964 1650.11 57.0699 1652.31 53.9567C1654.51 50.8434 1655.68 47.1833 1655.68 43.4391C1655.67 38.4216 1653.56 33.6114 1649.82 30.0632C1646.07 26.515 1640.99 24.5184 1635.69 24.5112Z" fill="white"/>
<path d="M1561.8 71.9908H1506.09C1503.05 71.9908 1500.14 70.8466 1497.98 68.8099C1495.83 66.7732 1494.63 64.0109 1494.63 61.1305C1494.63 58.2502 1495.83 55.4879 1497.98 53.4512C1500.14 51.4145 1503.05 50.2703 1506.09 50.2703H1561.8C1564.84 50.2703 1567.76 51.4145 1569.91 53.4512C1572.06 55.4879 1573.27 58.2502 1573.27 61.1305C1573.27 64.0109 1572.06 66.7732 1569.91 68.8099C1567.76 70.8466 1564.84 71.9908 1561.8 71.9908Z" fill="white"/>
<path d="M1508.72 24.5111H1460.22C1457.18 24.5111 1454.26 23.3669 1452.11 21.3302C1449.96 19.2935 1448.75 16.5311 1448.75 13.6508C1448.75 10.7705 1449.96 8.00813 1452.11 5.97143C1454.26 3.93473 1457.18 2.79053 1460.22 2.79053H1508.72C1511.76 2.79053 1514.67 3.93473 1516.83 5.97143C1518.98 8.00813 1520.18 10.7705 1520.18 13.6508C1520.18 16.5311 1518.98 19.2935 1516.83 21.3302C1514.67 23.3669 1511.76 24.5111 1508.72 24.5111Z" fill="white"/>
<path d="M1310.8 71.9908H1277.37C1274.33 71.9908 1271.42 70.8466 1269.26 68.8099C1267.11 66.7732 1265.91 64.0109 1265.91 61.1305C1265.91 58.2502 1267.11 55.4879 1269.26 53.4512C1271.42 51.4145 1274.33 50.2703 1277.37 50.2703H1310.8C1313.84 50.2703 1316.76 51.4145 1318.91 53.4512C1321.06 55.4879 1322.27 58.2502 1322.27 61.1305C1322.27 64.0109 1321.06 66.7732 1318.91 68.8099C1316.76 70.8466 1313.84 71.9908 1310.8 71.9908Z" fill="white"/>
<path d="M1290.48 24.5111H1245.9C1242.85 24.5111 1239.94 23.3669 1237.79 21.3302C1235.64 19.2935 1234.43 16.5311 1234.43 13.6508C1234.43 10.7705 1235.64 8.00813 1237.79 5.97143C1239.94 3.93473 1242.85 2.79053 1245.9 2.79053H1290.48C1293.53 2.79053 1296.44 3.93473 1298.59 5.97143C1300.74 8.00813 1301.95 10.7705 1301.95 13.6508C1301.95 16.5311 1300.74 19.2935 1298.59 21.3302C1296.44 23.3669 1293.53 24.5111 1290.48 24.5111Z" fill="white"/>
<path d="M1110.92 65.1603H1071.6C1068.55 65.1603 1065.64 64.016 1063.49 61.9794C1061.34 59.9427 1060.13 57.1803 1060.13 54.3C1060.13 51.4196 1061.34 48.6573 1063.49 46.6206C1065.64 44.5839 1068.55 43.4397 1071.6 43.4397H1110.92C1113.96 43.4397 1116.88 44.5839 1119.03 46.6206C1121.18 48.6573 1122.39 51.4196 1122.39 54.3C1122.39 57.1803 1121.18 59.9427 1119.03 61.9794C1116.88 64.016 1113.96 65.1603 1110.92 65.1603Z" fill="white"/>
<path d="M938.56 68.2646H902.101C899.084 68.2299 896.202 67.0705 894.081 65.0378C891.961 63.005 890.771 60.2626 890.771 57.4051C890.771 54.5476 891.961 51.8053 894.081 49.7725C896.202 47.7397 899.084 46.5803 902.101 46.5457H938.56C941.577 46.5803 944.459 47.7397 946.58 49.7725C948.7 51.8053 949.89 54.5476 949.89 57.4051C949.89 60.2626 948.7 63.005 946.58 65.0378C944.459 67.0705 941.577 68.2299 938.56 68.2646Z" fill="white"/>
<path d="M909.068 24.5111H866.478C863.436 24.5111 860.519 23.3669 858.368 21.3302C856.217 19.2935 855.009 16.5311 855.009 13.6508C855.009 10.7705 856.217 8.00813 858.368 5.97143C860.519 3.93473 863.436 2.79053 866.478 2.79053H909.068C912.11 2.79053 915.027 3.93473 917.178 5.97143C919.329 8.00813 920.537 10.7705 920.537 13.6508C920.537 16.5311 919.329 19.2935 917.178 21.3302C915.027 23.3669 912.11 24.5111 909.068 24.5111Z" fill="white"/>
<path d="M750.474 98.6738H730.815C727.773 98.6738 724.856 97.5296 722.705 95.4929C720.554 93.4562 719.346 90.6939 719.346 87.8135C719.346 84.9332 720.554 82.1709 722.705 80.1342C724.856 78.0975 727.773 76.9533 730.815 76.9533H739.003V35.5238C739.003 34.0977 739.3 32.6854 739.876 31.3678C740.453 30.0502 741.297 28.8529 742.362 27.8445C743.427 26.836 744.692 26.036 746.083 25.4903C747.475 24.9445 748.966 24.6636 750.472 24.6636C751.978 24.6636 753.47 24.9445 754.861 25.4903C756.253 26.036 757.517 26.836 758.582 27.8445C759.647 28.8529 760.492 30.0502 761.068 31.3678C761.644 32.6854 761.941 34.0977 761.941 35.5238V87.8135C761.941 90.6936 760.733 93.4557 758.582 95.4923C756.432 97.529 753.515 98.6734 750.474 98.6738Z" fill="white"/>
<path d="M519.134 96.1873C517.628 96.1876 516.137 95.9068 514.745 95.3611C513.353 94.8154 512.089 94.0154 511.024 93.0069C509.959 91.9984 509.114 90.8011 508.538 89.4834C507.962 88.1656 507.665 86.7533 507.665 85.3271V68.571C507.665 65.6906 508.874 62.9283 511.024 60.8916C513.175 58.8549 516.093 57.7107 519.134 57.7107H606.296C609.338 57.7107 612.255 58.8549 614.406 60.8916C616.557 62.9283 617.765 65.6906 617.765 68.571C617.765 71.4513 616.557 74.2136 614.406 76.2503C612.255 78.287 609.338 79.4312 606.296 79.4312H530.603V85.3271C530.603 86.7533 530.307 88.1656 529.731 89.4834C529.154 90.8011 528.31 91.9984 527.245 93.0069C526.18 94.0154 524.915 94.8154 523.524 95.3611C522.132 95.9068 520.64 96.1876 519.134 96.1873Z" fill="white"/>
<path d="M612.195 24.5111H535.523C532.481 24.5111 529.564 23.3669 527.413 21.3302C525.262 19.2935 524.054 16.5311 524.054 13.6508C524.054 10.7705 525.262 8.00813 527.413 5.97143C529.564 3.93473 532.481 2.79053 535.523 2.79053H612.195C615.237 2.79053 618.154 3.93473 620.305 5.97143C622.456 8.00813 623.664 10.7705 623.664 13.6508C623.664 16.5311 622.456 19.2935 620.305 21.3302C618.154 23.3669 615.237 24.5111 612.195 24.5111Z" fill="white"/>
<path d="M455.569 49.0216H431.32C428.278 49.0216 425.361 47.8774 423.21 45.8407C421.059 43.804 419.851 41.0416 419.851 38.1613C419.851 35.281 421.059 32.5186 423.21 30.4819C425.361 28.4452 428.278 27.301 431.32 27.301H455.569C458.611 27.301 461.528 28.4452 463.679 30.4819C465.83 32.5186 467.038 35.281 467.038 38.1613C467.038 41.0416 465.83 43.804 463.679 45.8407C461.528 47.8774 458.611 49.0216 455.569 49.0216Z" fill="white"/>
<path d="M488.99 417.522H470.64C467.598 417.522 464.681 416.378 462.53 414.341C460.379 412.304 459.171 409.542 459.171 406.662V197.65C459.171 194.77 460.379 192.008 462.53 189.971C464.681 187.934 467.598 186.79 470.64 186.79C473.682 186.79 476.599 187.934 478.75 189.971C480.901 192.008 482.109 194.77 482.109 197.65V395.802H488.99C492.031 395.802 494.949 396.946 497.099 398.982C499.25 401.019 500.459 403.781 500.459 406.662C500.459 409.542 499.25 412.304 497.099 414.341C494.949 416.378 492.031 417.522 488.99 417.522Z" fill="white"/>
<path d="M462.777 630.495H378.237C376.731 630.495 375.239 630.214 373.848 629.669C372.456 629.123 371.192 628.323 370.127 627.314C369.062 626.306 368.217 625.109 367.641 623.791C367.064 622.473 366.768 621.061 366.768 619.635V561.926C366.75 560.489 367.033 559.062 367.601 557.73C368.169 556.397 369.01 555.184 370.077 554.161C371.144 553.139 372.414 552.327 373.815 551.773C375.215 551.219 376.718 550.934 378.236 550.934C379.754 550.934 381.257 551.219 382.657 551.773C384.058 552.327 385.328 553.139 386.395 554.161C387.462 555.184 388.304 556.397 388.872 557.73C389.44 559.062 389.723 560.489 389.704 561.926V608.776H462.777C464.295 608.758 465.801 609.026 467.209 609.564C468.616 610.102 469.897 610.899 470.977 611.91C472.057 612.92 472.914 614.123 473.499 615.449C474.084 616.775 474.386 618.198 474.386 619.635C474.386 621.073 474.084 622.496 473.499 623.822C472.914 625.148 472.057 626.351 470.977 627.361C469.897 628.371 468.616 629.168 467.209 629.706C465.801 630.244 464.295 630.512 462.777 630.495Z" fill="white"/>
<path d="M602.367 641.219H547.317C545.8 641.236 544.293 640.968 542.886 640.43C541.478 639.892 540.198 639.095 539.118 638.085C538.038 637.075 537.181 635.872 536.596 634.546C536.011 633.22 535.709 631.797 535.709 630.359C535.709 628.922 536.011 627.499 536.596 626.173C537.181 624.847 538.038 623.644 539.118 622.634C540.198 621.623 541.478 620.826 542.886 620.288C544.293 619.75 545.8 619.482 547.317 619.5H590.898V609.709C590.898 606.828 592.107 604.066 594.257 602.029C596.408 599.993 599.325 598.848 602.367 598.848C605.409 598.848 608.326 599.993 610.477 602.029C612.628 604.066 613.836 606.828 613.836 609.709V630.354C613.837 631.78 613.541 633.193 612.965 634.511C612.389 635.829 611.544 637.027 610.479 638.036C609.414 639.045 608.149 639.846 606.757 640.392C605.366 640.938 603.874 641.219 602.367 641.219Z" fill="white"/>
<path d="M522.02 535.541C498.347 535.541 479.092 517.31 479.092 494.891C479.092 472.473 498.346 454.253 522.02 454.253C545.695 454.253 564.949 472.484 564.949 494.891C564.949 517.299 545.692 535.541 522.02 535.541ZM522.02 475.973C510.999 475.973 502.03 484.455 502.03 494.893C502.028 498.637 503.199 502.298 505.394 505.412C507.589 508.527 510.711 510.954 514.363 512.388C518.016 513.823 522.036 514.199 525.914 513.47C529.793 512.74 533.355 510.938 536.152 508.291C538.949 505.644 540.854 502.271 541.626 498.599C542.398 494.927 542.003 491.12 540.49 487.661C538.977 484.201 536.415 481.245 533.128 479.164C529.84 477.084 525.975 475.973 522.02 475.973Z" fill="white"/>
<path d="M704.6 475.978H657.418C655.9 475.996 654.394 475.728 652.986 475.19C651.579 474.652 650.298 473.855 649.218 472.845C648.138 471.835 647.281 470.632 646.696 469.305C646.111 467.979 645.81 466.556 645.81 465.119C645.81 463.682 646.111 462.259 646.696 460.932C647.281 459.606 648.138 458.403 649.218 457.393C650.298 456.383 651.579 455.586 652.986 455.048C654.394 454.51 655.9 454.242 657.418 454.259H693.126V424.955C693.126 422.074 694.335 419.312 696.486 417.275C698.636 415.238 701.554 414.094 704.595 414.094C707.637 414.094 710.554 415.238 712.705 417.275C714.856 419.312 716.064 422.074 716.064 424.955V465.124C716.063 468.003 714.855 470.763 712.705 472.798C710.555 474.834 707.64 475.977 704.6 475.978Z" fill="white"/>
<path d="M356.612 482.97C334.521 482.97 316.548 465.95 316.548 445.028C316.548 424.106 334.521 407.099 356.612 407.099C378.703 407.099 396.667 424.117 396.667 445.028C396.667 465.939 378.702 482.97 356.612 482.97ZM356.612 428.814C353.224 428.814 349.913 429.766 347.096 431.548C344.279 433.33 342.084 435.864 340.788 438.827C339.492 441.791 339.153 445.052 339.814 448.199C340.475 451.345 342.107 454.235 344.503 456.503C346.899 458.771 349.951 460.315 353.274 460.94C356.597 461.565 360.041 461.244 363.17 460.015C366.3 458.787 368.974 456.707 370.856 454.04C372.737 451.372 373.741 448.236 373.74 445.028C373.734 440.729 371.928 436.607 368.717 433.567C365.506 430.527 361.153 428.818 356.612 428.814Z" fill="white"/>
<path d="M352.679 310.654C331.323 310.654 313.949 294.202 313.949 273.984C313.949 253.766 331.323 237.306 352.679 237.306C374.035 237.306 391.408 253.758 391.408 273.984C391.408 294.21 374.035 310.654 352.679 310.654ZM352.679 259.027C349.556 259.026 346.503 259.903 343.905 261.546C341.308 263.189 339.284 265.524 338.088 268.256C336.893 270.989 336.579 273.995 337.188 276.896C337.797 279.797 339.301 282.462 341.509 284.553C343.717 286.645 346.531 288.07 349.594 288.647C352.657 289.225 355.832 288.929 358.718 287.798C361.604 286.666 364.071 284.75 365.807 282.291C367.542 279.833 368.469 276.942 368.47 273.984C368.466 270.019 366.801 266.218 363.841 263.413C360.88 260.609 356.866 259.032 352.679 259.027Z" fill="white"/>
<path d="M332.363 386.724C329.321 386.724 326.404 385.58 324.253 383.543C322.102 381.507 320.894 378.744 320.894 375.864V337.277C320.894 334.396 322.102 331.634 324.253 329.597C326.404 327.561 329.321 326.417 332.363 326.417H369.714C372.755 326.417 375.673 327.561 377.824 329.597C379.974 331.634 381.183 334.396 381.183 337.277C381.183 340.157 379.974 342.919 377.824 344.956C375.673 346.993 372.755 348.137 369.714 348.137H343.83V375.864C343.83 377.29 343.534 378.702 342.957 380.02C342.381 381.337 341.537 382.535 340.472 383.543C339.407 384.552 338.143 385.352 336.751 385.897C335.36 386.443 333.869 386.724 332.363 386.724Z" fill="white"/>
<path d="M195.393 626.151C193.887 626.151 192.396 625.87 191.004 625.324C189.613 624.779 188.349 623.979 187.284 622.97C186.219 621.962 185.374 620.764 184.798 619.447C184.222 618.129 183.925 616.717 183.926 615.291V548.894C183.907 547.457 184.19 546.03 184.758 544.697C185.326 543.365 186.168 542.152 187.235 541.129C188.302 540.107 189.572 539.295 190.973 538.741C192.373 538.187 193.876 537.902 195.394 537.902C196.912 537.902 198.414 538.187 199.815 538.741C201.215 539.295 202.486 540.107 203.553 541.129C204.619 542.152 205.461 543.365 206.029 544.697C206.597 546.03 206.88 547.457 206.862 548.894V615.291C206.862 616.717 206.566 618.129 205.989 619.447C205.413 620.765 204.568 621.962 203.503 622.971C202.438 623.979 201.174 624.779 199.782 625.325C198.391 625.871 196.899 626.151 195.393 626.151Z" fill="white"/>
<path d="M234.714 236.428H190.153C187.112 236.428 184.194 235.284 182.044 233.247C179.893 231.21 178.684 228.448 178.684 225.568C178.684 222.687 179.893 219.925 182.044 217.888C184.194 215.852 187.112 214.708 190.153 214.708H234.714C237.756 214.708 240.673 215.852 242.824 217.888C244.975 219.925 246.183 222.687 246.183 225.568C246.183 228.448 244.975 231.21 242.824 233.247C240.673 235.284 237.756 236.428 234.714 236.428Z" fill="white"/>
<path d="M245.856 73.2295H165.249C162.207 73.2295 159.29 72.0853 157.139 70.0486C154.988 68.0119 153.78 65.2496 153.78 62.3692V21.4071C153.78 18.5268 154.988 15.7645 157.139 13.7278C159.29 11.6911 162.207 10.5469 165.249 10.5469C168.29 10.5469 171.208 11.6911 173.358 13.7278C175.509 15.7645 176.718 18.5268 176.718 21.4071V51.509H245.856C248.898 51.509 251.815 52.6532 253.966 54.6899C256.117 56.7266 257.325 59.4889 257.325 62.3692C257.325 65.2496 256.117 68.0119 253.966 70.0486C251.815 72.0853 248.898 73.2295 245.856 73.2295Z" fill="white"/>
<path d="M70.2245 24.2055H-17.5946C-19.1008 24.2057 -20.5923 23.925 -21.9839 23.3793C-23.3754 22.8336 -24.6399 22.0336 -25.7049 21.0251C-26.7699 20.0166 -27.6147 18.8193 -28.191 17.5016C-28.7673 16.1838 -29.0638 14.7715 -29.0636 13.3453C-29.0636 11.9191 -28.7669 10.507 -28.1906 9.18944C-27.6142 7.8719 -26.7693 6.67478 -25.7043 5.66644C-24.6393 4.6581 -23.3749 3.85829 -21.9835 3.31268C-20.592 2.76708 -19.1007 2.48636 -17.5946 2.48657H70.2245C73.266 2.48657 76.1829 3.63056 78.3337 5.66691C80.4845 7.70326 81.693 10.4652 81.6935 13.3453C81.6935 16.2256 80.4851 18.9879 78.3343 21.0246C76.1834 23.0613 73.2663 24.2055 70.2245 24.2055Z" fill="white"/>
<path d="M967.648 637.605H921.709C918.668 637.605 915.75 636.46 913.599 634.424C911.449 632.387 910.24 629.625 910.24 626.744C910.24 623.864 911.449 621.102 913.599 619.065C915.75 617.028 918.668 615.884 921.709 615.884H967.648C970.69 615.884 973.607 617.028 975.758 619.065C977.909 621.102 979.117 623.864 979.117 626.744C979.117 629.625 977.909 632.387 975.758 634.424C973.607 636.46 970.69 637.605 967.648 637.605Z" fill="white"/>
<path d="M1189.81 643.806H1103.31C1100.27 643.806 1097.35 642.662 1095.2 640.626C1093.05 638.59 1091.85 635.828 1091.85 632.948V607.511C1091.83 606.074 1092.11 604.648 1092.68 603.315C1093.25 601.982 1094.09 600.769 1095.15 599.747C1096.22 598.724 1097.49 597.912 1098.89 597.358C1100.29 596.804 1101.8 596.519 1103.31 596.519C1104.83 596.519 1106.33 596.804 1107.73 597.358C1109.14 597.912 1110.41 598.724 1111.47 599.747C1112.54 600.769 1113.38 601.982 1113.95 603.315C1114.52 604.648 1114.8 606.074 1114.78 607.511V622.087H1189.82C1191.34 622.07 1192.85 622.338 1194.25 622.876C1195.66 623.414 1196.94 624.211 1198.02 625.221C1199.1 626.231 1199.96 627.434 1200.54 628.761C1201.13 630.087 1201.43 631.51 1201.43 632.947C1201.43 634.384 1201.13 635.807 1200.54 637.133C1199.96 638.46 1199.1 639.663 1198.02 640.673C1196.94 641.683 1195.66 642.48 1194.25 643.018C1192.85 643.556 1191.34 643.824 1189.82 643.806H1189.81Z" fill="white"/>
<path d="M1197.02 599.747C1193.98 599.747 1191.06 598.603 1188.91 596.567C1186.76 594.53 1185.55 591.768 1185.55 588.887V556.002C1185.55 553.122 1186.76 550.359 1188.91 548.323C1191.06 546.286 1193.98 545.142 1197.02 545.142C1200.06 545.142 1202.98 546.286 1205.13 548.323C1207.28 550.359 1208.49 553.122 1208.49 556.002V588.887C1208.49 591.768 1207.28 594.53 1205.13 596.567C1202.98 598.603 1200.06 599.747 1197.02 599.747Z" fill="white"/>
</g>
</svg>
