<svg width="320" height="477" viewBox="0 0 320 477" fill="none" xmlns="http://www.w3.org/2000/svg">
<path fill-rule="evenodd" clip-rule="evenodd" d="M3.424 264.345L25.8944 286.824L69.7684 330.343C85.1261 345.06 94.4785 357.109 112.012 356.705C142.342 356.326 178.815 356.032 210.04 355.753C213.429 348.966 219.032 343.513 225.906 340.311C232.779 337.11 240.503 336.355 247.777 338.175C255.052 339.994 261.433 344.277 265.846 350.302C270.26 356.326 272.437 363.726 272.01 371.254C271.584 378.782 268.58 385.98 263.505 391.636C258.429 397.292 251.592 401.06 244.144 402.307C236.696 403.555 229.091 402.204 222.61 398.483C216.129 394.762 211.167 388.898 208.56 381.878C175.482 382.173 141.248 382.908 109.889 381.954C96.4582 381.175 79.7242 378.617 63.5634 360.221L-14.4255 282.202L-125.884 170.7L-90.4376 170.384L3.424 264.345ZM226.278 383.023C228.81 385.559 232.05 387.273 235.589 387.948C239.127 388.624 242.806 388.231 246.158 386.819C249.511 385.407 252.387 383.039 254.424 380.015C256.46 376.991 257.565 373.447 257.599 369.831C257.633 366.215 256.594 362.689 254.613 359.699C252.633 356.71 249.8 354.39 246.473 353.035C243.146 351.68 239.475 351.35 235.923 352.086C232.371 352.822 229.099 354.591 226.519 357.17C223.062 360.629 221.095 365.294 221.051 370.141C221.006 374.989 222.888 379.621 226.281 383.02L226.278 383.023Z" fill="white"/>
<path fill-rule="evenodd" clip-rule="evenodd" d="M26.1027 222.142L40.064 236.109L67.3235 263.147C76.8655 272.291 82.6763 279.777 93.5702 279.526C112.415 279.291 135.076 279.108 154.476 278.935C156.582 274.718 160.063 271.33 164.334 269.341C168.604 267.352 173.403 266.883 177.923 268.013C182.443 269.144 186.407 271.805 189.15 275.548C191.892 279.291 193.244 283.889 192.979 288.566C192.714 293.243 190.848 297.716 187.695 301.23C184.541 304.744 180.293 307.085 175.666 307.86C171.038 308.635 166.313 307.796 162.286 305.484C158.26 303.172 155.177 299.529 153.557 295.167C133.005 295.35 111.735 295.807 92.2508 295.214C83.9063 294.73 73.5092 293.141 63.4683 281.711L15.0126 233.236L-54.2379 163.959L-32.2148 163.762L26.1027 222.142ZM164.565 295.878C166.138 297.454 168.151 298.519 170.35 298.939C172.549 299.358 174.834 299.114 176.917 298.237C179 297.359 180.787 295.888 182.053 294.01C183.318 292.131 184.004 289.929 184.025 287.682C184.046 285.435 183.401 283.244 182.17 281.387C180.94 279.529 179.18 278.088 177.113 277.246C175.046 276.404 172.765 276.199 170.558 276.656C168.351 277.114 166.318 278.213 164.715 279.816C162.567 281.964 161.345 284.863 161.318 287.875C161.29 290.886 162.459 293.765 164.567 295.876L164.565 295.878Z" fill="white"/>
<path fill-rule="evenodd" clip-rule="evenodd" d="M344.755 252.972L328.718 225.185L297.31 171.295C286.181 152.934 280.209 138.744 263.011 134.556C233.344 126.999 197.71 117.754 167.197 109.867C162.12 115.597 155.234 119.45 147.697 120.775C140.161 122.1 132.434 120.817 125.817 117.142C119.201 113.467 114.098 107.625 111.369 100.598C108.639 93.571 108.449 85.7888 110.831 78.5611C113.212 71.3333 118.02 65.1012 124.444 60.9137C130.869 56.7262 138.519 54.8388 146.105 55.5694C153.692 56.2999 160.753 59.6038 166.1 64.9248C171.446 70.2458 174.753 77.2592 175.462 84.7845C207.785 93.1405 241.351 101.371 271.674 110.495C284.564 114.765 300.209 121.631 311.161 143.788L366.818 240.228L446.362 378.055L411.724 369.101L344.755 252.972ZM158.487 79.0381C156.681 75.9045 153.97 73.3868 150.696 71.8034C147.423 70.22 143.734 69.6419 140.097 70.1425C136.46 70.643 133.038 72.1996 130.263 74.6153C127.488 77.0311 125.485 80.1975 124.508 83.7142C123.531 87.2308 123.623 90.9396 124.773 94.3717C125.923 97.8037 128.079 100.805 130.969 102.995C133.858 105.186 137.351 106.467 141.006 106.678C144.661 106.889 148.313 106.019 151.502 104.178C155.775 101.711 158.91 97.6762 160.219 92.9623C161.529 88.2484 160.904 83.2409 158.483 79.0406L158.487 79.0381Z" fill="white"/>
</svg>
