<svg width="57" height="57" viewBox="0 0 57 57" fill="none" xmlns="http://www.w3.org/2000/svg">
<g clip-path="url(#clip0_1_9018)">
<path d="M55.6588 22.0099L51.2779 21.0575C50.897 19.8912 50.4251 18.7536 49.868 17.6577L52.2933 13.8851C52.7265 13.2111 52.6312 12.3261 52.065 11.7599L45.2401 4.93497C44.6739 4.36876 43.7889 4.27352 43.1149 4.70666L39.3423 7.13196C38.2464 6.57488 37.1088 6.10304 35.9425 5.72209L34.9901 1.34116C34.82 0.55838 34.1269 0 33.3258 0H23.6742C22.8731 0 22.18 0.55838 22.0099 1.34116L21.0575 5.72209C19.8912 6.10304 18.7536 6.57488 17.6577 7.13196L13.8851 4.70666C13.2111 4.27352 12.3261 4.36876 11.7599 4.93497L4.93497 11.7599C4.36876 12.3261 4.27352 13.2111 4.70666 13.8851L7.13196 17.6577C6.57488 18.7536 6.10304 19.8912 5.72209 21.0575L1.34116 22.0099C0.55838 22.1804 0 22.8731 0 23.6742V33.3258C0 34.1269 0.55838 34.8196 1.34116 34.9901L5.72209 35.9425C6.10304 37.1088 6.57488 38.2464 7.13196 39.3423L4.70666 43.1149C4.27352 43.7889 4.36876 44.6739 4.93497 45.2401L11.7599 52.065C12.3261 52.6312 13.2111 52.7265 13.8851 52.2933L17.6577 49.868C18.7536 50.4251 19.8912 50.897 21.0575 51.2779L22.0099 55.6588C22.18 56.4416 22.8731 57 23.6742 57H33.3258C34.1269 57 34.82 56.4416 34.9901 55.6588L35.9425 51.2779C37.1088 50.897 38.2464 50.4251 39.3423 49.868L43.1149 52.2933C43.7889 52.7265 44.6739 52.6317 45.2401 52.065L52.065 45.2401C52.6312 44.6739 52.7265 43.7889 52.2933 43.1149L49.868 39.3423C50.4251 38.2464 50.897 37.1088 51.2779 35.9425L55.6588 34.9901C56.4416 34.8196 57 34.1269 57 33.3258V23.6742C57 22.8731 56.4416 22.1804 55.6588 22.0099ZM38.7191 28.5C38.7191 34.1347 34.1347 38.7191 28.5 38.7191C22.8653 38.7191 18.2809 34.1347 18.2809 28.5C18.2809 22.8653 22.8653 18.2809 28.5 18.2809C34.1347 18.2809 38.7191 22.8653 38.7191 28.5Z" fill="url(#paint0_linear_1_9018)"/>
</g>
<defs>
<linearGradient id="paint0_linear_1_9018" x1="0" y1="0" x2="67.6315" y2="38.1555" gradientUnits="userSpaceOnUse">
<stop stop-color="#ED1928"/>
<stop offset="1" stop-color="#E60254"/>
</linearGradient>
<clipPath id="clip0_1_9018">
<rect width="57" height="57" fill="white"/>
</clipPath>
</defs>
</svg>
