<svg width="320" height="477" viewBox="0 0 320 477" fill="none" xmlns="http://www.w3.org/2000/svg">
<path fill-rule="evenodd" clip-rule="evenodd" d="M316.576 264.312L294.106 286.791L250.232 330.31C234.874 345.026 225.522 357.075 207.988 356.672C177.658 356.293 141.185 355.999 109.96 355.72C106.571 348.933 100.968 343.48 94.0945 340.278C87.2213 337.076 79.4975 336.322 72.223 338.141C64.9485 339.961 58.5675 344.244 54.1539 350.268C49.7403 356.293 47.5635 363.692 47.99 371.221C48.4164 378.749 51.4201 385.947 56.4954 391.603C61.5707 397.259 68.4077 401.027 75.856 402.274C83.3041 403.521 90.9087 402.171 97.3898 398.45C103.871 394.729 108.833 388.865 111.44 381.845C144.518 382.14 178.752 382.874 210.111 381.921C223.542 381.142 240.276 378.584 256.437 360.188L334.425 282.168L445.884 170.667L410.438 170.35L316.576 264.312ZM93.7221 382.99C91.1902 385.526 87.95 387.24 84.4113 387.915C80.8726 388.591 77.1943 388.198 73.8417 386.786C70.489 385.374 67.6126 383.006 65.5761 379.982C63.5397 376.958 62.4348 373.414 62.4011 369.798C62.3674 366.182 63.4064 362.656 65.3867 359.666C67.3671 356.676 70.1998 354.357 73.5267 353.002C76.8535 351.647 80.5251 351.316 84.077 352.053C87.6288 352.789 90.9015 354.558 93.4811 357.137C96.9378 360.595 98.9047 365.261 98.9492 370.108C98.9938 374.955 97.1123 379.588 93.7186 382.986L93.7221 382.99Z" fill="white"/>
<path fill-rule="evenodd" clip-rule="evenodd" d="M293.897 222.109L279.936 236.075L252.676 263.114C243.135 272.258 237.324 279.744 226.43 279.493C207.585 279.258 184.924 279.075 165.524 278.902C163.418 274.685 159.937 271.297 155.666 269.307C151.396 267.318 146.597 266.849 142.077 267.98C137.557 269.111 133.593 271.771 130.85 275.515C128.108 279.258 126.756 283.855 127.021 288.533C127.286 293.21 129.152 297.682 132.305 301.196C135.459 304.71 139.707 307.052 144.334 307.827C148.962 308.602 153.687 307.762 157.714 305.451C161.74 303.139 164.823 299.495 166.443 295.134C186.995 295.317 208.265 295.773 227.749 295.181C236.094 294.697 246.491 293.107 256.532 281.678L304.987 233.203L374.238 163.925L352.215 163.729L293.897 222.109ZM155.435 295.845C153.862 297.421 151.849 298.485 149.65 298.905C147.451 299.325 145.166 299.081 143.083 298.203C141 297.326 139.213 295.855 137.947 293.976C136.682 292.097 135.996 289.895 135.975 287.649C135.954 285.402 136.599 283.211 137.83 281.354C139.06 279.496 140.82 278.055 142.887 277.213C144.954 276.371 147.235 276.166 149.442 276.623C151.649 277.08 153.682 278.18 155.285 279.782C157.433 281.931 158.655 284.83 158.682 287.841C158.71 290.853 157.541 293.731 155.433 295.843L155.435 295.845Z" fill="white"/>
<path  fill-rule="evenodd" clip-rule="evenodd" d="M-24.7546 252.938L-8.71833 225.152L22.6902 171.261C33.8194 152.901 39.7906 138.71 56.9893 134.522C86.6563 126.966 122.29 117.721 152.803 109.833C157.88 115.564 164.766 119.416 172.303 120.741C179.839 122.066 187.566 120.783 194.183 117.109C200.799 113.434 205.902 107.591 208.631 100.564C211.361 93.5376 211.551 85.7555 209.169 78.5277C206.788 71.3 201.98 65.0679 195.556 60.8804C189.131 56.6929 181.481 54.8055 173.895 55.5361C166.308 56.2666 159.247 59.5704 153.9 64.8914C148.554 70.2125 145.247 77.2258 144.538 84.7512C112.215 93.1071 78.649 101.338 48.3262 110.462C35.4365 114.731 19.7908 121.598 8.8394 143.755L-46.8184 240.195L-126.362 378.022L-91.7237 369.068L-24.7546 252.938ZM161.513 79.0048C163.319 75.8712 166.03 73.3535 169.304 71.7701C172.577 70.1867 176.266 69.6086 179.903 70.1092C183.54 70.6097 186.962 72.1663 189.737 74.582C192.512 76.9978 194.515 80.1642 195.492 83.6808C196.469 87.1974 196.377 90.9063 195.227 94.3383C194.077 97.7704 191.921 100.771 189.031 102.962C186.142 105.152 182.649 106.434 178.994 106.645C175.339 106.855 171.687 105.985 168.498 104.145C164.225 101.677 161.09 97.6428 159.781 92.9289C158.471 88.2151 159.096 83.2076 161.517 79.0073L161.513 79.0048Z" fill="white"/>
</svg>
